<svg version="1.2" xmlns="http://www.w3.org/2000/svg" viewBox="0 0 377 79" width="377" height="79"><defs><clipPath clipPathUnits="userSpaceOnUse" id="cp1"><path d="m690.47 405.08h-1142.95c-13.55 0-24.53-10.98-24.53-24.53v-713.97c0-13.55 10.98-24.53 24.53-24.53h1142.95c13.55 0 24.54 10.98 24.54 24.53v713.97c0 13.55-10.99 24.53-24.54 24.53z"/></clipPath><linearGradient id="P" gradientUnits="userSpaceOnUse"/><linearGradient id="g1" x2="1" href="#P" gradientTransform="matrix(0,-78.036,378.939,0,179.802,78.589)"><stop stop-color="#fff" stop-opacity="0"/><stop offset="1" stop-color="#ffe689" stop-opacity="1"/></linearGradient></defs><style>.a{opacity:.8;fill:url(#g1)}</style><g clip-path="url(#cp1)"><g style="mix-blend-mode:soft-light"><path class="a" d="m82.9 34.1c5.3-6.1 14.2-9.7 21.5-6.4 4.9 2.2 8.3 7.1 13.4 8.7 6.1 1.8 12.5-1.7 16.7-6.4 4.2-4.7 6.9-10.5 10.9-15.4 7.4-9.1 19.3-14.5 31-14 11.8 0.4 23.2 6.6 29.9 16.2 5.1 7.4 8.8 17.5 17.6 19.5 11.1 2.5 20.4-10.3 31.8-10.7 8.4-0.3 15.6 6.4 19.2 14 2.2 4.4 3.7 9.6 8 12 7.9 4.5 16.9-4 26-4.7 8.5-0.7 15.7 5.6 22.6 10.7 13.4 9.7 29.4 15.7 45.8 17.2-15.2 1.1-30.3 3.4-45.5 3.4h-333.4c-0.7 2.7 12.8-9.7 21.4-14.5 8.7-4.9 19.1-6.5 28.9-4.4 8 1.6 17.7 4.5 23.7-3.3 4.9-6.4 5-15.4 10.5-21.9z"/></g></g></svg>