<svg version="1.2" xmlns="http://www.w3.org/2000/svg" viewBox="0 0 223 93" width="223" height="93"><defs><clipPath clipPathUnits="userSpaceOnUse" id="cp1"><path d="m197.47 546.08h-1142.95c-13.55 0-24.53-10.98-24.53-24.53v-713.97c0-13.55 10.98-24.53 24.53-24.53h1142.95c13.55 0 24.54 10.98 24.54 24.53v713.97c0 13.55-10.99 24.53-24.54 24.53z"/></clipPath><linearGradient id="P" gradientUnits="userSpaceOnUse"/><linearGradient id="g1" x2="1" href="#P" gradientTransform="matrix(0,-96.393,248.677,0,103.82,94.111)"><stop stop-color="#fff" stop-opacity="0"/><stop offset="1" stop-color="#ffe689" stop-opacity="1"/></linearGradient></defs><style>.a{opacity:.8;fill:url(#g1)}</style><g clip-path="url(#cp1)"><g style="mix-blend-mode:soft-light"><path class="a" d="m244.6-1.9q-0.1 0-0.2 0c-14-2-28.9 3.4-38.5 13.8-4 4.4-7.5 9.9-13.2 11.6-10.5 3.1-20.4-8.5-31.3-7.7-19.4 1.4-21.6 36.9-41 37.2-7.1 0.1-13.2-5.1-20.1-6.8-10.7-2.6-21.7 3.7-29.5 11.6-7.7 7.9-13.7 17.6-22.4 24.4-8.7 6.8-19.6 4.6-30.7 3.7-20.8-1.8-5-0.8-17.9 6.7h244.8z"/></g></g></svg>