<svg version="1.2" xmlns="http://www.w3.org/2000/svg" viewBox="0 0 1194 117" width="1194" height="117"><defs><clipPath clipPathUnits="userSpaceOnUse" id="cp1"><path d="m1168.47 117.08h-1142.95c-13.55 0-24.53-10.98-24.53-24.53v-713.97c0-13.55 10.98-24.53 24.53-24.53h1142.95c13.55 0 24.54 10.98 24.54 24.53v713.97c0 13.55-10.99 24.53-24.54 24.53z"/></clipPath><linearGradient id="P" gradientUnits="userSpaceOnUse"/><linearGradient id="g1" x2="1" href="#P" gradientTransform="matrix(-9.326,83.934,-288.527,-32.059,161.952,-12.313)"><stop stop-color="#fd75a8"/><stop offset="1" stop-color="#1a2c74"/></linearGradient><linearGradient id="g2" x2="1" href="#P" gradientTransform="matrix(2.181,53.436,-175.855,7.178,851.418,19.631)"><stop stop-color="#fd75a8"/><stop offset="1" stop-color="#1a2c74"/></linearGradient><linearGradient id="g3" x2="1" href="#P" gradientTransform="matrix(0,-276.582,2795.643,0,585.529,275.35)"><stop stop-color="#fd75a8"/><stop offset="1" stop-color="#1a2c74"/></linearGradient><linearGradient id="g4" x2="1" href="#P" gradientTransform="matrix(0,154.943,-382.355,0,32.735,-48.961)"><stop stop-color="#fd75a8"/><stop offset="1" stop-color="#1a2c74"/></linearGradient><linearGradient id="g5" x2="1" href="#P" gradientTransform="matrix(0,86.917,-240.962,0,1114.958,-21.941)"><stop stop-color="#fd75a8"/><stop offset="1" stop-color="#1a2c74"/></linearGradient><linearGradient id="g6" x2="1" href="#P" gradientTransform="matrix(-2.181,53.436,-175.855,-7.178,726.137,45.384)"><stop stop-color="#fd75a8"/><stop offset="1" stop-color="#1a2c74"/></linearGradient><linearGradient id="g7" x2="1" href="#P" gradientTransform="matrix(8.143,105.863,-413.157,31.781,969.21,-22.843)"><stop stop-color="#fd75a8"/><stop offset="1" stop-color="#1a2c74"/></linearGradient><linearGradient id="g8" x2="1" href="#P" gradientTransform="matrix(0,86.203,-392.691,0,290.672,22.157)"><stop stop-color="#fd75a8"/><stop offset="1" stop-color="#1a2c74"/></linearGradient><linearGradient id="g9" x2="1" href="#P" gradientTransform="matrix(36.682,170.356,-356.188,76.696,22.703,-31.912)"><stop stop-color="#fd75a8"/><stop offset="1" stop-color="#1a2c74"/></linearGradient><linearGradient id="g10" x2="1" href="#P" gradientTransform="matrix(-12.862,-138.905,853.685,-79.045,596.972,239.694)"><stop stop-color="#fd75a8"/><stop offset="1" stop-color="#1a2c74"/></linearGradient></defs><style>.a{fill:url(#g1)}.b{fill:url(#g2)}.c{fill:url(#g3)}.d{fill:url(#g4)}.e{fill:url(#g5)}.f{fill:url(#g6)}.g{fill:url(#g7)}.h{fill:url(#g8)}.i{fill:url(#g9)}.j{fill:url(#g10)}</style><g clip-path="url(#cp1)"><path class="a" d="m244.2 63.4c6.6-0.8 9.9-1.1 16.5-1.9 0 0-10.9-6.1-14.2-14.4-3.4-8.4-15.2-9.4-17.8-7.8-2.5 1.6-5.8-6.5-12.5-7.2-6.6-0.6-12.1 20.1-13.8 20-1.7-0.2-1.6-5.6-5.8-12.1-4-6.1-12.2-6-17.6-10.5-2.7-2.2-3.9-5.3-6.8-7.2-4.4-2.8-10.2-2.2-14.5-5.7-6.1-5.1-7.1-9.8-16.7-9.1-9.4 0.8-14.1 10.2-22.6 13.3-9.7 3.5-9.7 18.4-9.7 18.4 0 0-3-2.1-8.9-2.1-5.9 0-6.8 8.5-9.3 6.5-2.5-2-2.1-18.8-16-17.9-14 1-14.8 20.3-22.9 26.1-8 5.8-18.9 9.6-18.9 9.6q105.7 1.1 211.5 2z"/><path class="b" d="m741.2 69.8c2.7-2.1 5.5-4.9 7-8.1 3.5-7.7 14.6-8 16.9-6.4 2.3 1.6 5.8-5.7 12.1-6 6.2-0.3 10.2 19.4 11.8 19.4 1.6-0.1 1.8-5.2 6.1-11 4-5.6 11.7-5 17-8.9 2.6-1.9 3.9-4.8 6.7-6.4 4.2-2.4 9.6-1.6 13.8-4.6 6-4.4 7.1-8.8 16-7.6 8.9 1.2 12.7 10.2 20.5 13.5 8.9 3.9 8.1 17.7 8.1 17.7 0 0 2.9-1.7 8.4-1.4 5.5 0.3 5.9 8.2 8.3 6.5 2.5-1.8 3-17.5 16-15.8 12.9 1.6 12.7 19.7 19.9 25.5 7.1 5.9 57.7 22.6 57.7 22.6-65.8-2.9-172.2-18.7-238.1-21.7-3.4-0.6-5.8-1-8.4-1.5z"/><path class="c" d="m1158 29.5c-51.7 11-104.4 11.2-158 15.3-53 4.1-100.3 21.8-155.9 17-48.9-4.2-88.5 4.2-138 9.1-87.3 8.8-165.4 0.8-250.5-9.6-73.7-9-144.4-11.5-220.8-5.5-49.3 3.8-74 3.9-121.8-6.3-42.8-9.2-113.8-42.7-129.9-50.2-4.8-2.2-10-3.8-15.4-5.1v123.4h1247.9v-107.2c-17.9 7.7-36.7 14.6-57.6 19.1z"/><path class="d" d="m95.7 58.8c-6.7-14.6-28.9-16-33.6-13.1-4.6 2.9-11.4-11.3-23.9-12.2-12.5-0.9-21.2 36-24.3 35.8-3.2-0.2-3.5-9.9-11.8-21.2-8.3-11.3-24.9-8.9-24.9-8.9 0 0-2.5-6.8-9.5-13.2v63.1q62.5-0.6 125-1.3c12.3-1.6 18.4-2.3 30.7-3.9 0 0-20.9-10.4-27.7-25.1z"/><path class="e" d="m1215.6 32.4c-2.8-0.4-4.9-0.1-4.9-0.1 0 0-2.5-7.9-10.8-12.5-8.3-4.7-16.5 5.4-17-3.3-0.6-8.6-15.2-16.6-25-15.9-9.7 0.7-11.1 12.2-22.2 16.4-11.2 4.2-11.1 21.3-11.1 21.3 0 0-3.4-2.3-10.2-2.3-6.8 0.1-7.7 9.8-10.6 7.5-2.9-2.2-2.6-21.6-18.7-20.3-16 1.3-16.7 23.5-25.9 30.3-9.1 6.8-21.7 11.3-21.7 11.3q89 0 178.1-0.2z"/><path class="f" d="m836.3 95.6c-2.7-2.2-5.4-4.9-6.9-8.2-3.5-7.6-14.6-7.9-16.9-6.3-2.3 1.6-5.9-5.8-12.1-6-6.3-0.3-10.3 19.4-11.8 19.3-1.6 0-1.9-5.1-6.1-11-4.1-5.5-11.8-4.9-17-8.9-2.6-1.9-3.9-4.7-6.7-6.3-4.2-2.5-9.6-1.6-13.8-4.7-6-4.4-7.2-8.8-16.1-7.5-8.8 1.2-12.6 10.2-20.4 13.5-8.9 3.8-8.2 17.7-8.2 17.7 0 0-2.8-1.8-8.3-1.4-5.6 0.3-5.9 8.2-8.4 6.4-2.5-1.7-2.9-17.4-15.9-15.8-13 1.6-12.7 19.7-19.9 25.6-7.2 5.8-57.8 22.6-57.8 22.6 65.9-3 172.3-18.7 238.1-21.8 3.4-0.6 5.9-1 8.5-1.4z"/><path class="g" d="m853.3 98.3c-7.4-0.3-11.2-0.5-18.6-0.8 0 0 11.7-8.1 14.7-18.2 3-10.1 16.1-12.2 19.1-10.6 3 1.7 6-8 13.4-9.4 7.4-1.3 15.2 22.7 17.1 22.3 1.9-0.3 1.4-6.7 5.5-14.6 3.9-7.6 13.2-8.1 18.8-13.8 2.8-2.8 3.9-6.5 6.9-9 4.7-3.7 11.2-3.5 15.7-8 6.4-6.4 7.2-12 17.9-11.9 10.7 0.1 16.6 10.7 26.4 13.7 11.2 3.3 12.5 20.8 12.5 20.8 0 0 3.1-2.6 9.7-3.1 6.6-0.5 8.3 9.3 10.9 6.7 2.7-2.5 0.8-22.2 16.4-22.2 15.7 0 18.3 22.6 27.7 28.8 9.5 6.1 22.1 9.7 22.1 9.7q-118.1 9.9-236.2 19.6z"/><path class="h" d="m159.7 108.2c-8.5-0.8-12.7-1.1-21.1-1.8 0 0 13.7-7 17.7-16.3 4-9.3 19-10.6 22.3-8.9 3.3 1.7 7.3-7.3 15.8-8.1 8.5-0.9 16 22 18.1 21.8 2.2-0.2 2-6.2 7.1-13.5 4.9-6.9 15.4-6.8 22.2-11.9 3.3-2.5 4.8-5.9 8.4-8.1 5.5-3.2 12.9-2.7 18.3-6.6 7.6-5.7 8.8-11 21-10.3 12.1 0.7 18.2 11 29.1 14.2 12.5 3.8 12.9 20.2 12.9 20.2 0 0 3.7-2.3 11.3-2.4 7.5-0.1 8.8 9.2 12 6.9 3.1-2.2 2.1-20.8 19.9-20 17.8 0.8 19.4 22.2 29.7 28.5 10.4 6.3 24.4 10.2 24.4 10.2q-134.6 3.2-269.1 6.1z"/><path class="i" d="m159.1 89.9c-7.7-11.5-33.2-12.7-38.6-10.5-5.4 2.3-13.1-8.9-27.4-9.6-14.4-0.8-24.6 28.1-28.3 27.9-3.6-0.1-3.9-7.7-13.4-16.6-9.5-8.9-28.6-7.1-28.6-7.1 0 0-5-9.5-20.8-15.1-15.7-5.6-30.7 6.7-32.1-3.7-0.2-1.5-1-3-2.2-4.5v62.7q93.8-0.5 187.7-0.8c14.1-1.1 21.2-1.7 35.3-2.9 0 0-23.9-8.2-31.6-19.8z"/><path class="j" d="m1016 145.7l199.6-2.7v-89c-25.4 8.5-53.2 8.7-87.6 8.9-52.8 0.2-104.2 10-157.8 14.6-53 4.5-100 21.9-155.7 18.1-48.9-3.3-88.4 5.1-137.9 10.4-87.1 9.5-165.4 2.9-250.6-5.8-73.7-7.5-144.5-8.9-220.8-2.3-49.2 4.3-73.9 4.7-121.8-4.3-34.7-6.5-88-27.9-115.7-39.4v91.5z"/></g></svg>