<svg version="1.2" xmlns="http://www.w3.org/2000/svg" viewBox="0 0 1194 156" width="1194" height="156"><defs><clipPath clipPathUnits="userSpaceOnUse" id="cp1"><path d="m1168.47 156.08h-1142.95c-13.55 0-24.53-10.98-24.53-24.53v-713.97c0-13.55 10.98-24.53 24.53-24.53h1142.95c13.55 0 24.54 10.98 24.54 24.53v713.97c0 13.55-10.99 24.53-24.54 24.53z"/></clipPath><linearGradient id="P" gradientUnits="userSpaceOnUse"/><linearGradient id="g1" x2="1" href="#P" gradientTransform="matrix(2.299,-103.439,3189.561,70.877,641.384,94.015)"><stop stop-color="#fd75a8"/><stop offset="1" stop-color="#1a2c74"/></linearGradient><linearGradient id="g2" x2="1" href="#P" gradientTransform="matrix(1.915,-86.161,53.66,1.192,611.821,88.881)"><stop stop-color="#fd75a8"/><stop offset="1" stop-color="#1a2c74"/></linearGradient><linearGradient id="g3" x2="1" href="#P" gradientTransform="matrix(1.915,-86.161,53.66,1.192,603.304,88.69)"><stop stop-color="#fd75a8"/><stop offset="1" stop-color="#1a2c74"/></linearGradient><linearGradient id="g4" x2="1" href="#P" gradientTransform="matrix(1.915,-86.161,53.66,1.192,634.231,89.382)"><stop stop-color="#fd75a8"/><stop offset="1" stop-color="#1a2c74"/></linearGradient><linearGradient id="g5" x2="1" href="#P" gradientTransform="matrix(1.915,-86.161,53.66,1.192,653.621,89.815)"><stop stop-color="#fd75a8"/><stop offset="1" stop-color="#1a2c74"/></linearGradient><linearGradient id="g6" x2="1" href="#P" gradientTransform="matrix(1.915,-86.161,53.66,1.192,631.262,89.319)"><stop stop-color="#fd75a8"/><stop offset="1" stop-color="#1a2c74"/></linearGradient><linearGradient id="g7" x2="1" href="#P" gradientTransform="matrix(1.92,-86.414,79.788,1.773,609.406,88.955)"><stop stop-color="#fd75a8"/><stop offset="1" stop-color="#1a2c74"/></linearGradient><linearGradient id="g8" x2="1" href="#P" gradientTransform="matrix(1.915,-86.161,53.66,1.192,520.592,86.841)"><stop stop-color="#fd75a8"/><stop offset="1" stop-color="#1a2c74"/></linearGradient><linearGradient id="g9" x2="1" href="#P" gradientTransform="matrix(1.915,-86.161,53.66,1.192,512.075,86.651)"><stop stop-color="#fd75a8"/><stop offset="1" stop-color="#1a2c74"/></linearGradient><linearGradient id="g10" x2="1" href="#P" gradientTransform="matrix(1.915,-86.162,53.66,1.192,563.522,87.8)"><stop stop-color="#fd75a8"/><stop offset="1" stop-color="#1a2c74"/></linearGradient><linearGradient id="g11" x2="1" href="#P" gradientTransform="matrix(1.915,-86.161,53.66,1.192,540.033,87.279)"><stop stop-color="#fd75a8"/><stop offset="1" stop-color="#1a2c74"/></linearGradient><linearGradient id="g12" x2="1" href="#P" gradientTransform="matrix(1.92,-86.414,79.789,1.773,518.177,86.91)"><stop stop-color="#fd75a8"/><stop offset="1" stop-color="#1a2c74"/></linearGradient><linearGradient id="g13" x2="1" href="#P" gradientTransform="matrix(1.915,-86.161,53.66,1.192,204.798,79.781)"><stop stop-color="#fd75a8"/><stop offset="1" stop-color="#1a2c74"/></linearGradient><linearGradient id="g14" x2="1" href="#P" gradientTransform="matrix(1.915,-86.161,53.66,1.192,196.282,79.59)"><stop stop-color="#fd75a8"/><stop offset="1" stop-color="#1a2c74"/></linearGradient><linearGradient id="g15" x2="1" href="#P" gradientTransform="matrix(1.92,-86.414,79.789,1.773,202.385,79.829)"><stop stop-color="#fd75a8"/><stop offset="1" stop-color="#1a2c74"/></linearGradient><linearGradient id="g16" x2="1" href="#P" gradientTransform="matrix(1.92,-86.414,79.79,1.773,472.563,85.887)"><stop stop-color="#fd75a8"/><stop offset="1" stop-color="#1a2c74"/></linearGradient><linearGradient id="g17" x2="1" href="#P" gradientTransform="matrix(1.915,-86.161,53.66,1.192,430.294,84.822)"><stop stop-color="#fd75a8"/><stop offset="1" stop-color="#1a2c74"/></linearGradient><linearGradient id="g18" x2="1" href="#P" gradientTransform="matrix(1.915,-86.161,53.66,1.192,375.231,83.591)"><stop stop-color="#fd75a8"/><stop offset="1" stop-color="#1a2c74"/></linearGradient><linearGradient id="g19" x2="1" href="#P" gradientTransform="matrix(1.915,-86.162,53.659,1.192,426.678,84.741)"><stop stop-color="#fd75a8"/><stop offset="1" stop-color="#1a2c74"/></linearGradient><linearGradient id="g20" x2="1" href="#P" gradientTransform="matrix(1.92,-86.414,79.789,1.773,278.562,81.475)"><stop stop-color="#fd75a8"/><stop offset="1" stop-color="#1a2c74"/></linearGradient><linearGradient id="g21" x2="1" href="#P" gradientTransform="matrix(1.915,-86.161,53.66,1.192,236.292,80.443)"><stop stop-color="#fd75a8"/><stop offset="1" stop-color="#1a2c74"/></linearGradient><linearGradient id="g22" x2="1" href="#P" gradientTransform="matrix(1.915,-86.161,53.66,1.192,232.676,80.361)"><stop stop-color="#fd75a8"/><stop offset="1" stop-color="#1a2c74"/></linearGradient><linearGradient id="g23" x2="1" href="#P" gradientTransform="matrix(1.915,-86.161,53.66,1.192,403.189,84.219)"><stop stop-color="#fd75a8"/><stop offset="1" stop-color="#1a2c74"/></linearGradient><linearGradient id="g24" x2="1" href="#P" gradientTransform="matrix(1.92,-86.414,79.789,1.773,381.334,83.841)"><stop stop-color="#fd75a8"/><stop offset="1" stop-color="#1a2c74"/></linearGradient><linearGradient id="g25" x2="1" href="#P" gradientTransform="matrix(1.92,-86.414,79.789,1.773,791.865,93.047)"><stop stop-color="#fd75a8"/><stop offset="1" stop-color="#1a2c74"/></linearGradient><linearGradient id="g26" x2="1" href="#P" gradientTransform="matrix(1.915,-86.161,53.66,1.192,749.596,91.961)"><stop stop-color="#fd75a8"/><stop offset="1" stop-color="#1a2c74"/></linearGradient><linearGradient id="g27" x2="1" href="#P" gradientTransform="matrix(1.915,-86.161,53.66,1.192,312.116,82.156)"><stop stop-color="#fd75a8"/><stop offset="1" stop-color="#1a2c74"/></linearGradient><linearGradient id="g28" x2="1" href="#P" gradientTransform="matrix(1.915,-86.162,53.66,1.192,745.98,91.88)"><stop stop-color="#fd75a8"/><stop offset="1" stop-color="#1a2c74"/></linearGradient><linearGradient id="g29" x2="1" href="#P" gradientTransform="matrix(1.915,-86.161,53.661,1.192,340.074,82.785)"><stop stop-color="#fd75a8"/><stop offset="1" stop-color="#1a2c74"/></linearGradient><linearGradient id="g30" x2="1" href="#P" gradientTransform="matrix(1.914,-86.131,50.481,1.122,836.476,93.885)"><stop stop-color="#fd75a8"/><stop offset="1" stop-color="#1a2c74"/></linearGradient><linearGradient id="g31" x2="1" href="#P" gradientTransform="matrix(1.914,-86.131,50.481,1.122,818.501,93.483)"><stop stop-color="#fd75a8"/><stop offset="1" stop-color="#1a2c74"/></linearGradient><linearGradient id="g32" x2="1" href="#P" gradientTransform="matrix(1.915,-86.161,53.659,1.192,789.271,92.848)"><stop stop-color="#fd75a8"/><stop offset="1" stop-color="#1a2c74"/></linearGradient><linearGradient id="g33" x2="1" href="#P" gradientTransform="matrix(1.912,-86.035,40.683,.904,893.813,95.113)"><stop stop-color="#fd75a8"/><stop offset="1" stop-color="#1a2c74"/></linearGradient><linearGradient id="g34" x2="1" href="#P" gradientTransform="matrix(1.909,-85.906,27.349,.608,861.882,94.326)"><stop stop-color="#fd75a8"/><stop offset="1" stop-color="#1a2c74"/></linearGradient><linearGradient id="g35" x2="1" href="#P" gradientTransform="matrix(1.92,-86.397,78.076,1.735,922.199,95.96)"><stop stop-color="#fd75a8"/><stop offset="1" stop-color="#1a2c74"/></linearGradient><linearGradient id="g36" x2="1" href="#P" gradientTransform="matrix(1.914,-86.151,52.507,1.167,880.365,94.879)"><stop stop-color="#fd75a8"/><stop offset="1" stop-color="#1a2c74"/></linearGradient><linearGradient id="g37" x2="1" href="#P" gradientTransform="matrix(1.914,-86.15,52.506,1.167,877.391,94.811)"><stop stop-color="#fd75a8"/><stop offset="1" stop-color="#1a2c74"/></linearGradient><linearGradient id="g38" x2="1" href="#P" gradientTransform="matrix(1.914,-86.151,52.507,1.167,918.778,95.737)"><stop stop-color="#fd75a8"/><stop offset="1" stop-color="#1a2c74"/></linearGradient><linearGradient id="g39" x2="1" href="#P" gradientTransform="matrix(1.914,-86.131,50.482,1.122,835.232,93.857)"><stop stop-color="#fd75a8"/><stop offset="1" stop-color="#1a2c74"/></linearGradient><linearGradient id="g40" x2="1" href="#P" gradientTransform="matrix(1.913,-86.085,45.879,1.02,818.397,93.457)"><stop stop-color="#fd75a8"/><stop offset="1" stop-color="#1a2c74"/></linearGradient><linearGradient id="g41" x2="1" href="#P" gradientTransform="matrix(1.92,-86.414,79.789,1.773,318.219,82.391)"><stop stop-color="#fd75a8"/><stop offset="1" stop-color="#1a2c74"/></linearGradient><linearGradient id="g42" x2="1" href="#P" gradientTransform="matrix(2.329,-104.789,1157.954,25.732,585.089,78.722)"><stop stop-color="#fd75a8"/><stop offset="1" stop-color="#1a2c74"/></linearGradient><linearGradient id="g43" x2="1" href="#P" gradientTransform="matrix(2.085,-93.845,1151.382,25.586,586.5,80.269)"><stop stop-color="#1a2c74"/><stop offset="1" stop-color="#fd75a8"/></linearGradient><linearGradient id="g44" x2="1" href="#P" gradientTransform="matrix(1.915,-86.161,53.66,1.192,390.469,102.346)"><stop stop-color="#fd75a8"/><stop offset="1" stop-color="#1a2c74"/></linearGradient><linearGradient id="g45" x2="1" href="#P" gradientTransform="matrix(1.915,-86.161,53.66,1.192,381.952,102.156)"><stop stop-color="#fd75a8"/><stop offset="1" stop-color="#1a2c74"/></linearGradient><linearGradient id="g46" x2="1" href="#P" gradientTransform="matrix(1.915,-86.161,53.66,1.192,412.879,102.847)"><stop stop-color="#fd75a8"/><stop offset="1" stop-color="#1a2c74"/></linearGradient><linearGradient id="g47" x2="1" href="#P" gradientTransform="matrix(1.915,-86.161,53.66,1.192,432.269,103.281)"><stop stop-color="#fd75a8"/><stop offset="1" stop-color="#1a2c74"/></linearGradient><linearGradient id="g48" x2="1" href="#P" gradientTransform="matrix(1.915,-86.161,53.66,1.192,409.91,102.784)"><stop stop-color="#fd75a8"/><stop offset="1" stop-color="#1a2c74"/></linearGradient><linearGradient id="g49" x2="1" href="#P" gradientTransform="matrix(1.92,-86.413,79.789,1.773,388.055,102.42)"><stop stop-color="#fd75a8"/><stop offset="1" stop-color="#1a2c74"/></linearGradient><linearGradient id="g50" x2="1" href="#P" gradientTransform="matrix(1.915,-86.161,53.66,1.192,299.24,100.307)"><stop stop-color="#fd75a8"/><stop offset="1" stop-color="#1a2c74"/></linearGradient><linearGradient id="g51" x2="1" href="#P" gradientTransform="matrix(1.915,-86.161,53.66,1.192,290.723,100.116)"><stop stop-color="#fd75a8"/><stop offset="1" stop-color="#1a2c74"/></linearGradient><linearGradient id="g52" x2="1" href="#P" gradientTransform="matrix(1.915,-86.161,53.66,1.192,342.17,101.265)"><stop stop-color="#fd75a8"/><stop offset="1" stop-color="#1a2c74"/></linearGradient><linearGradient id="g53" x2="1" href="#P" gradientTransform="matrix(1.915,-86.161,53.66,1.192,318.681,100.745)"><stop stop-color="#fd75a8"/><stop offset="1" stop-color="#1a2c74"/></linearGradient><linearGradient id="g54" x2="1" href="#P" gradientTransform="matrix(1.129,-50.813,43.979,.977,251.471,84.168)"><stop stop-color="#fd75a8"/><stop offset="1" stop-color="#1a2c74"/></linearGradient><linearGradient id="g55" x2="1" href="#P" gradientTransform="matrix(1.915,-86.161,53.66,1.192,225.899,102.156)"><stop stop-color="#fd75a8"/><stop offset="1" stop-color="#1a2c74"/></linearGradient><linearGradient id="g56" x2="1" href="#P" gradientTransform="matrix(1.129,-50.813,43.979,.977,269.797,84.464)"><stop stop-color="#fd75a8"/><stop offset="1" stop-color="#1a2c74"/></linearGradient><linearGradient id="g57" x2="1" href="#P" gradientTransform="matrix(1.915,-86.161,53.659,1.192,276.217,103.281)"><stop stop-color="#fd75a8"/><stop offset="1" stop-color="#1a2c74"/></linearGradient><linearGradient id="g58" x2="1" href="#P" gradientTransform="matrix(1.129,-50.813,43.979,.977,263.031,84.367)"><stop stop-color="#fd75a8"/><stop offset="1" stop-color="#1a2c74"/></linearGradient><linearGradient id="g59" x2="1" href="#P" gradientTransform="matrix(1.92,-86.413,79.789,1.773,232.002,102.42)"><stop stop-color="#fd75a8"/><stop offset="1" stop-color="#1a2c74"/></linearGradient><linearGradient id="g60" x2="1" href="#P" gradientTransform="matrix(1.915,-86.161,53.66,1.192,143.187,100.307)"><stop stop-color="#fd75a8"/><stop offset="1" stop-color="#1a2c74"/></linearGradient><linearGradient id="g61" x2="1" href="#P" gradientTransform="matrix(1.915,-86.161,53.66,1.192,134.67,100.116)"><stop stop-color="#fd75a8"/><stop offset="1" stop-color="#1a2c74"/></linearGradient><linearGradient id="g62" x2="1" href="#P" gradientTransform="matrix(1.915,-86.161,53.66,1.192,186.117,101.265)"><stop stop-color="#fd75a8"/><stop offset="1" stop-color="#1a2c74"/></linearGradient><linearGradient id="g63" x2="1" href="#P" gradientTransform="matrix(1.915,-86.161,53.66,1.192,162.629,100.745)"><stop stop-color="#fd75a8"/><stop offset="1" stop-color="#1a2c74"/></linearGradient><linearGradient id="g64" x2="1" href="#P" gradientTransform="matrix(1.92,-86.413,79.789,1.773,296.826,100.375)"><stop stop-color="#fd75a8"/><stop offset="1" stop-color="#1a2c74"/></linearGradient><linearGradient id="g65" x2="1" href="#P" gradientTransform="matrix(1.915,-86.161,53.66,1.192,-16.553,93.246)"><stop stop-color="#fd75a8"/><stop offset="1" stop-color="#1a2c74"/></linearGradient><linearGradient id="g66" x2="1" href="#P" gradientTransform="matrix(1.915,-86.161,53.66,1.192,-25.07,93.056)"><stop stop-color="#fd75a8"/><stop offset="1" stop-color="#1a2c74"/></linearGradient><linearGradient id="g67" x2="1" href="#P" gradientTransform="matrix(1.92,-86.413,79.789,1.773,251.211,99.352)"><stop stop-color="#fd75a8"/><stop offset="1" stop-color="#1a2c74"/></linearGradient><linearGradient id="g68" x2="1" href="#P" gradientTransform="matrix(1.915,-86.161,53.66,1.192,208.942,98.288)"><stop stop-color="#fd75a8"/><stop offset="1" stop-color="#1a2c74"/></linearGradient><linearGradient id="g69" x2="1" href="#P" gradientTransform="matrix(.771,-34.675,33.081,.735,749.218,75.762)"><stop stop-color="#fd75a8"/><stop offset="1" stop-color="#1a2c74"/></linearGradient><linearGradient id="g70" x2="1" href="#P" gradientTransform="matrix(1.306,-58.765,40.353,.897,732.551,88.05)"><stop stop-color="#fd75a8"/><stop offset="1" stop-color="#1a2c74"/></linearGradient><linearGradient id="g71" x2="1" href="#P" gradientTransform="matrix(.771,-34.675,33.08,.735,762.992,75.964)"><stop stop-color="#fd75a8"/><stop offset="1" stop-color="#1a2c74"/></linearGradient><linearGradient id="g72" x2="1" href="#P" gradientTransform="matrix(1.306,-58.765,40.353,.897,770.369,88.818)"><stop stop-color="#fd75a8"/><stop offset="1" stop-color="#1a2c74"/></linearGradient><linearGradient id="g73" x2="1" href="#P" gradientTransform="matrix(.771,-34.676,33.081,.735,757.286,75.887)"><stop stop-color="#fd75a8"/><stop offset="1" stop-color="#1a2c74"/></linearGradient><linearGradient id="g74" x2="1" href="#P" gradientTransform="matrix(1.311,-58.977,60.02,1.334,734.298,88.217)"><stop stop-color="#fd75a8"/><stop offset="1" stop-color="#1a2c74"/></linearGradient><linearGradient id="g75" x2="1" href="#P" gradientTransform="matrix(1.311,-58.977,60.02,1.334,783.013,86.821)"><stop stop-color="#fd75a8"/><stop offset="1" stop-color="#1a2c74"/></linearGradient><linearGradient id="g76" x2="1" href="#P" gradientTransform="matrix(1.311,-58.977,60.02,1.334,748.73,86.123)"><stop stop-color="#fd75a8"/><stop offset="1" stop-color="#1a2c74"/></linearGradient><linearGradient id="g77" x2="1" href="#P" gradientTransform="matrix(1.306,-58.765,40.353,.897,719.8,85.412)"><stop stop-color="#fd75a8"/><stop offset="1" stop-color="#1a2c74"/></linearGradient><linearGradient id="g78" x2="1" href="#P" gradientTransform="matrix(.771,-34.675,33.08,.735,990.673,75.762)"><stop stop-color="#fd75a8"/><stop offset="1" stop-color="#1a2c74"/></linearGradient><linearGradient id="g79" x2="1" href="#P" gradientTransform="matrix(1.306,-58.765,40.353,.897,974.006,88.05)"><stop stop-color="#fd75a8"/><stop offset="1" stop-color="#1a2c74"/></linearGradient><linearGradient id="g80" x2="1" href="#P" gradientTransform="matrix(.771,-34.675,33.081,.735,1004.447,75.964)"><stop stop-color="#fd75a8"/><stop offset="1" stop-color="#1a2c74"/></linearGradient><linearGradient id="g81" x2="1" href="#P" gradientTransform="matrix(1.306,-58.765,40.353,.897,1011.824,88.818)"><stop stop-color="#fd75a8"/><stop offset="1" stop-color="#1a2c74"/></linearGradient><linearGradient id="g82" x2="1" href="#P" gradientTransform="matrix(.771,-34.676,33.082,.735,998.741,75.887)"><stop stop-color="#fd75a8"/><stop offset="1" stop-color="#1a2c74"/></linearGradient><linearGradient id="g83" x2="1" href="#P" gradientTransform="matrix(1.311,-58.977,60.02,1.334,975.753,88.217)"><stop stop-color="#fd75a8"/><stop offset="1" stop-color="#1a2c74"/></linearGradient><linearGradient id="g84" x2="1" href="#P" gradientTransform="matrix(1.311,-58.977,60.02,1.334,990.185,86.123)"><stop stop-color="#fd75a8"/><stop offset="1" stop-color="#1a2c74"/></linearGradient><linearGradient id="g85" x2="1" href="#P" gradientTransform="matrix(1.306,-58.765,40.353,.897,961.255,85.412)"><stop stop-color="#fd75a8"/><stop offset="1" stop-color="#1a2c74"/></linearGradient><linearGradient id="g86" x2="1" href="#P" gradientTransform="matrix(1.915,-86.161,53.659,1.192,153.879,97.056)"><stop stop-color="#fd75a8"/><stop offset="1" stop-color="#1a2c74"/></linearGradient><linearGradient id="g87" x2="1" href="#P" gradientTransform="matrix(1.915,-86.161,53.659,1.192,205.326,98.206)"><stop stop-color="#fd75a8"/><stop offset="1" stop-color="#1a2c74"/></linearGradient><linearGradient id="g88" x2="1" href="#P" gradientTransform="matrix(1.915,-86.161,53.66,1.192,14.94,93.908)"><stop stop-color="#fd75a8"/><stop offset="1" stop-color="#1a2c74"/></linearGradient><linearGradient id="g89" x2="1" href="#P" gradientTransform="matrix(1.915,-86.161,53.66,1.192,181.838,97.685)"><stop stop-color="#fd75a8"/><stop offset="1" stop-color="#1a2c74"/></linearGradient><linearGradient id="g90" x2="1" href="#P" gradientTransform="matrix(1.92,-86.413,79.789,1.773,159.982,97.306)"><stop stop-color="#fd75a8"/><stop offset="1" stop-color="#1a2c74"/></linearGradient><linearGradient id="g91" x2="1" href="#P" gradientTransform="matrix(2.631,-118.401,53.571,1.19,-22.91,113.752)"><stop stop-color="#fd75a8"/><stop offset="1" stop-color="#1a2c74"/></linearGradient><linearGradient id="g92" x2="1" href="#P" gradientTransform="matrix(2.631,-118.401,53.57,1.19,-31.425,113.49)"><stop stop-color="#fd75a8"/><stop offset="1" stop-color="#1a2c74"/></linearGradient><linearGradient id="g93" x2="1" href="#P" gradientTransform="matrix(2.631,-118.401,53.571,1.19,31.041,115.251)"><stop stop-color="#fd75a8"/><stop offset="1" stop-color="#1a2c74"/></linearGradient><linearGradient id="g94" x2="1" href="#P" gradientTransform="matrix(2.631,-118.402,53.571,1.19,6.354,114.512)"><stop stop-color="#fd75a8"/><stop offset="1" stop-color="#1a2c74"/></linearGradient><linearGradient id="g95" x2="1" href="#P" gradientTransform="matrix(2.631,-118.401,53.571,1.19,-12.191,109.286)"><stop stop-color="#fd75a8"/><stop offset="1" stop-color="#1a2c74"/></linearGradient><linearGradient id="g96" x2="1" href="#P" gradientTransform="matrix(2.631,-118.402,53.571,1.19,25.589,110.307)"><stop stop-color="#fd75a8"/><stop offset="1" stop-color="#1a2c74"/></linearGradient><linearGradient id="g97" x2="1" href="#P" gradientTransform="matrix(2.634,-118.532,79.593,1.769,12.947,109.8)"><stop stop-color="#fd75a8"/><stop offset="1" stop-color="#1a2c74"/></linearGradient><linearGradient id="g98" x2="1" href="#P" gradientTransform="matrix(1.92,-86.413,79.789,1.773,570.513,106.512)"><stop stop-color="#fd75a8"/><stop offset="1" stop-color="#1a2c74"/></linearGradient><linearGradient id="g99" x2="1" href="#P" gradientTransform="matrix(1.915,-86.161,53.66,1.192,528.244,105.427)"><stop stop-color="#fd75a8"/><stop offset="1" stop-color="#1a2c74"/></linearGradient><linearGradient id="g100" x2="1" href="#P" gradientTransform="matrix(1.915,-86.161,53.66,1.192,90.764,95.622)"><stop stop-color="#fd75a8"/><stop offset="1" stop-color="#1a2c74"/></linearGradient><linearGradient id="g101" x2="1" href="#P" gradientTransform="matrix(1.915,-86.161,53.66,1.192,524.628,105.345)"><stop stop-color="#fd75a8"/><stop offset="1" stop-color="#1a2c74"/></linearGradient><linearGradient id="g102" x2="1" href="#P" gradientTransform="matrix(1.915,-86.161,53.66,1.192,118.722,96.25)"><stop stop-color="#fd75a8"/><stop offset="1" stop-color="#1a2c74"/></linearGradient><linearGradient id="g103" x2="1" href="#P" gradientTransform="matrix(1.915,-86.161,53.659,1.192,1085.152,100.307)"><stop stop-color="#fd75a8"/><stop offset="1" stop-color="#1a2c74"/></linearGradient><linearGradient id="g104" x2="1" href="#P" gradientTransform="matrix(1.915,-86.161,53.659,1.192,1076.635,100.116)"><stop stop-color="#fd75a8"/><stop offset="1" stop-color="#1a2c74"/></linearGradient><linearGradient id="g105" x2="1" href="#P" gradientTransform="matrix(1.915,-86.161,53.66,1.192,1104.594,100.745)"><stop stop-color="#fd75a8"/><stop offset="1" stop-color="#1a2c74"/></linearGradient><linearGradient id="g106" x2="1" href="#P" gradientTransform="matrix(2.376,-106.938,39.924,.887,1064.901,105.831)"><stop stop-color="#fd75a8"/><stop offset="1" stop-color="#1a2c74"/></linearGradient><linearGradient id="g107" x2="1" href="#P" gradientTransform="matrix(1.92,-86.413,79.79,1.773,1101.947,97.306)"><stop stop-color="#fd75a8"/><stop offset="1" stop-color="#1a2c74"/></linearGradient><linearGradient id="g108" x2="1" href="#P" gradientTransform="matrix(1.915,-86.161,53.66,1.192,1032.729,95.622)"><stop stop-color="#fd75a8"/><stop offset="1" stop-color="#1a2c74"/></linearGradient><linearGradient id="g109" x2="1" href="#P" gradientTransform="matrix(1.915,-86.161,53.66,1.192,1060.687,96.25)"><stop stop-color="#fd75a8"/><stop offset="1" stop-color="#1a2c74"/></linearGradient><linearGradient id="g110" x2="1" href="#P" gradientTransform="matrix(1.914,-86.13,50.481,1.122,615.125,107.35)"><stop stop-color="#fd75a8"/><stop offset="1" stop-color="#1a2c74"/></linearGradient><linearGradient id="g111" x2="1" href="#P" gradientTransform="matrix(1.914,-86.13,50.481,1.122,597.15,106.949)"><stop stop-color="#fd75a8"/><stop offset="1" stop-color="#1a2c74"/></linearGradient><linearGradient id="g112" x2="1" href="#P" gradientTransform="matrix(1.915,-86.161,53.66,1.192,567.919,106.314)"><stop stop-color="#fd75a8"/><stop offset="1" stop-color="#1a2c74"/></linearGradient><linearGradient id="g113" x2="1" href="#P" gradientTransform="matrix(1.912,-86.036,40.683,.904,672.461,108.579)"><stop stop-color="#fd75a8"/><stop offset="1" stop-color="#1a2c74"/></linearGradient><linearGradient id="g114" x2="1" href="#P" gradientTransform="matrix(1.909,-85.906,27.349,.608,640.529,107.791)"><stop stop-color="#fd75a8"/><stop offset="1" stop-color="#1a2c74"/></linearGradient><linearGradient id="g115" x2="1" href="#P" gradientTransform="matrix(1.92,-86.397,78.076,1.735,700.847,109.424)"><stop stop-color="#fd75a8"/><stop offset="1" stop-color="#1a2c74"/></linearGradient><linearGradient id="g116" x2="1" href="#P" gradientTransform="matrix(1.914,-86.15,52.507,1.167,659.013,108.344)"><stop stop-color="#fd75a8"/><stop offset="1" stop-color="#1a2c74"/></linearGradient><linearGradient id="g117" x2="1" href="#P" gradientTransform="matrix(1.914,-86.15,52.506,1.167,656.04,108.276)"><stop stop-color="#fd75a8"/><stop offset="1" stop-color="#1a2c74"/></linearGradient><linearGradient id="g118" x2="1" href="#P" gradientTransform="matrix(-2.049,-92.197,1118.525,-24.856,596.719,88.725)"><stop stop-color="#1a2c74"/><stop offset="1" stop-color="#fd75a8"/></linearGradient><linearGradient id="g119" x2="1" href="#P" gradientTransform="matrix(-30.449,291.805,-1691.071,-176.459,618.444,-67.021)"><stop stop-color="#fd75a8"/><stop offset="1" stop-color="#1a2c74"/></linearGradient><linearGradient id="g120" x2="1" href="#P" gradientTransform="matrix(-9.326,83.934,-288.527,-32.059,161.952,26.687)"><stop stop-color="#fd75a8"/><stop offset="1" stop-color="#1a2c74"/></linearGradient><linearGradient id="g121" x2="1" href="#P" gradientTransform="matrix(2.181,53.436,-175.855,7.178,851.418,58.631)"><stop stop-color="#fd75a8"/><stop offset="1" stop-color="#1a2c74"/></linearGradient><linearGradient id="g122" x2="1" href="#P" gradientTransform="matrix(0,-276.582,2795.643,0,585.529,314.35)"><stop stop-color="#fd75a8"/><stop offset="1" stop-color="#1a2c74"/></linearGradient><linearGradient id="g123" x2="1" href="#P" gradientTransform="matrix(0,154.943,-382.355,0,32.735,-9.961)"><stop stop-color="#fd75a8"/><stop offset="1" stop-color="#1a2c74"/></linearGradient><linearGradient id="g124" x2="1" href="#P" gradientTransform="matrix(0,86.917,-240.962,0,1114.958,17.059)"><stop stop-color="#fd75a8"/><stop offset="1" stop-color="#1a2c74"/></linearGradient><linearGradient id="g125" x2="1" href="#P" gradientTransform="matrix(-2.181,53.436,-175.855,-7.178,726.137,84.384)"><stop stop-color="#fd75a8"/><stop offset="1" stop-color="#1a2c74"/></linearGradient><linearGradient id="g126" x2="1" href="#P" gradientTransform="matrix(8.143,105.863,-413.157,31.781,969.21,16.157)"><stop stop-color="#fd75a8"/><stop offset="1" stop-color="#1a2c74"/></linearGradient><linearGradient id="g127" x2="1" href="#P" gradientTransform="matrix(0,86.203,-392.691,0,290.672,61.157)"><stop stop-color="#fd75a8"/><stop offset="1" stop-color="#1a2c74"/></linearGradient><linearGradient id="g128" x2="1" href="#P" gradientTransform="matrix(36.682,170.356,-356.188,76.696,22.703,7.088)"><stop stop-color="#fd75a8"/><stop offset="1" stop-color="#1a2c74"/></linearGradient><linearGradient id="g129" x2="1" href="#P" gradientTransform="matrix(-12.862,-138.905,853.685,-79.045,596.972,278.694)"><stop stop-color="#fd75a8"/><stop offset="1" stop-color="#1a2c74"/></linearGradient></defs><style>.a{fill:url(#g1)}.b{fill:url(#g2)}.c{fill:url(#g3)}.d{fill:url(#g4)}.e{fill:url(#g5)}.f{fill:url(#g6)}.g{fill:url(#g7)}.h{fill:url(#g8)}.i{fill:url(#g9)}.j{fill:url(#g10)}.k{fill:url(#g11)}.l{fill:url(#g12)}.m{fill:url(#g13)}.n{fill:url(#g14)}.o{fill:url(#g15)}.p{fill:url(#g16)}.q{fill:url(#g17)}.r{fill:url(#g18)}.s{fill:url(#g19)}.t{fill:url(#g20)}.u{fill:url(#g21)}.v{fill:url(#g22)}.w{fill:url(#g23)}.x{fill:url(#g24)}.y{fill:url(#g25)}.z{fill:url(#g26)}.A{fill:url(#g27)}.B{fill:url(#g28)}.C{fill:url(#g29)}.D{fill:url(#g30)}.E{fill:url(#g31)}.F{fill:url(#g32)}.G{fill:url(#g33)}.H{fill:url(#g34)}.I{fill:url(#g35)}.J{fill:url(#g36)}.K{fill:url(#g37)}.L{fill:url(#g38)}.M{fill:url(#g39)}.N{fill:url(#g40)}.O{fill:url(#g41)}.P{fill:url(#g42)}.Q{fill:url(#g43)}.R{fill:url(#g44)}.S{fill:url(#g45)}.T{fill:url(#g46)}.U{fill:url(#g47)}.V{fill:url(#g48)}.W{fill:url(#g49)}.X{fill:url(#g50)}.Y{fill:url(#g51)}.Z{fill:url(#g52)}.a0{fill:url(#g53)}.a1{fill:url(#g54)}.a2{fill:url(#g55)}.a3{fill:url(#g56)}.a4{fill:url(#g57)}.a5{fill:url(#g58)}.a6{fill:url(#g59)}.a7{fill:url(#g60)}.a8{fill:url(#g61)}.a9{fill:url(#g62)}.aa{fill:url(#g63)}.ab{fill:url(#g64)}.ac{fill:url(#g65)}.ad{fill:url(#g66)}.ae{fill:url(#g67)}.af{fill:url(#g68)}.ag{fill:url(#g69)}.ah{fill:url(#g70)}.ai{fill:url(#g71)}.aj{fill:url(#g72)}.ak{fill:url(#g73)}.al{fill:url(#g74)}.am{fill:url(#g75)}.an{fill:url(#g76)}.ao{fill:url(#g77)}.ap{fill:url(#g78)}.aq{fill:url(#g79)}.ar{fill:url(#g80)}.as{fill:url(#g81)}.at{fill:url(#g82)}.au{fill:url(#g83)}.av{fill:url(#g84)}.aw{fill:url(#g85)}.ax{fill:url(#g86)}.ay{fill:url(#g87)}.az{fill:url(#g88)}.aA{fill:url(#g89)}.aB{fill:url(#g90)}.aC{fill:url(#g91)}.aD{fill:url(#g92)}.aE{fill:url(#g93)}.aF{fill:url(#g94)}.aG{fill:url(#g95)}.aH{fill:url(#g96)}.aI{fill:url(#g97)}.aJ{fill:url(#g98)}.aK{fill:url(#g99)}.aL{fill:url(#g100)}.aM{fill:url(#g101)}.aN{fill:url(#g102)}.aO{fill:url(#g103)}.aP{fill:url(#g104)}.aQ{fill:url(#g105)}.aR{fill:url(#g106)}.aS{fill:url(#g107)}.aT{fill:url(#g108)}.aU{fill:url(#g109)}.aV{fill:url(#g110)}.aW{fill:url(#g111)}.aX{fill:url(#g112)}.aY{fill:url(#g113)}.aZ{fill:url(#g114)}.b0{fill:url(#g115)}.b1{fill:url(#g116)}.b2{fill:url(#g117)}.b3{fill:url(#g118)}.b4{fill:url(#g119)}.b5{opacity:0;fill:url(#g120)}.b6{opacity:0;fill:url(#g121)}.b7{opacity:0;fill:url(#g122)}.b8{fill:url(#g123)}.b9{fill:url(#g124)}.ba{fill:url(#g125)}.bb{fill:url(#g126)}.bc{fill:url(#g127)}.bd{fill:url(#g128)}.be{opacity:0;fill:url(#g129)}</style><g clip-path="url(#cp1)"><path class="a" d="m1215.6 46.6c-21.8-0.5-42.3-1.2-66.6-2-52.1-1.7-97.6-3.9-149.9-5.6-14.8-0.4-31.8-0.8-45.6-1.4-14.3-0.6-24.1-1.5-37.5-2.2-8.5-0.4-27.4-0.2-33.8-0.4-15.7-0.5-18.1-0.8-36.4-0.7-12.7 0.2-43.2 1.5-65.3 2.6-24.2 1.3-37.9 1.5-58.2 2.3-6.3 0.3-18.4 0.4-23.7 0.2-15.6-0.8-32.9-1.2-59.7-0.1-41.7 1.8-106.2 3.2-151.6 6.1-26.5 1.7-105 1.3-139 2-44.4 1-86.7 2.7-130.7 3.7-40.1 0.9-103 1-147.4 2.6h1145.4z"/><path class="b" d="m633.2 44.1h25.2l-11.1-40.3z"/><path class="c" d="m624.6 44.1h25.3l-11.1-40.3z"/><path class="d" d="m655.6 44.1h25.3l-11.2-40.3z"/><path class="e" d="m675 44.1h25.3l-11.2-40.3z"/><path class="f" d="m645.8 43.4h16.8l-7.4-26.8z"/><path class="g" d="m612.3 44.1h19.5l-8.6-20.9z"/><path class="h" d="m541.9 44.1h25.3l-11.2-40.3z"/><path class="i" d="m533.4 44.1h25.2l-11.1-40.3z"/><path class="j" d="m577.2 44.1h15.7l-6.9-25.1z"/><path class="k" d="m554.5 43.4h16.8l-7.4-26.8z"/><path class="l" d="m521 44.1h19.5l-8.6-20.9z"/><path class="m" d="m225.9 44.1h25.3l-11.1-40.3z"/><path class="n" d="m217.4 44.1h25.3l-11.2-40.3z"/><path class="o" d="m205.1 44.1h19.5l-8.6-20.9z"/><path class="p" d="m475.4 44.1h19.5l-8.6-20.9z"/><path class="q" d="m451.5 44.1h25.3l-11.1-40.3z"/><path class="r" d="m396.4 44.1h25.3l-11.1-40.3z"/><path class="s" d="m440.3 44.1h15.7l-6.9-25.1z"/><path class="t" d="m281.1 50.9h19.5l-8.6-20.8z"/><path class="u" d="m257.3 50.9h25.3l-11.2-40.2z"/><path class="v" d="m246 50.9h15.8l-7-25.1z"/><path class="w" d="m417.6 43.4h16.8l-7.4-26.8z"/><path class="x" d="m384.1 44.1h19.5l-8.6-20.9z"/><path class="y" d="m794.8 44.1h19.5l-8.6-20.9z"/><path class="z" d="m771 44.1h25.3l-11.2-40.3z"/><path class="A" d="m333.2 48h25.3l-11.2-40.3z"/><path class="B" d="m759.7 44.1h15.8l-7-25.1z"/><path class="C" d="m354.4 47.3h16.8l-7.4-26.8z"/><path class="D" d="m852.7 44.1h15.5l-6.8-26.3z"/><path class="E" d="m834.7 44.1h15.5l-6.8-26.3z"/><path class="F" d="m810.7 44.1h25.3l-11.2-40.3z"/><path class="G" d="m912.4 43.3h9.9l-4.3-20.9z"/><path class="H" d="m920.5 43.3h12.9l-5.7-40.3z"/><path class="I" d="m925.7 44.1h18.9l-8.4-20.6z"/><path class="J" d="m902.6 44.1h24.5l-10.8-39.8z"/><path class="K" d="m891.7 44.1h15.2l-6.7-24.8z"/><path class="L" d="m941 44.1h24.5l-10.8-39.8z"/><path class="M" d="m845.8 44.1h9.6l-4.2-16.4z"/><path class="N" d="m831.8 43.6h9.6l-4.2-17.9z"/><path class="O" d="m320.9 48h19.5l-8.6-20.9z"/><path class="P" d="m1106.1 37.8c-42.9-0.8-291.8 0.3-330.6 0.3h-254.5c-56.1 0-72.6-1.5-149.8 3.2-77.3 4.6-11.4-5-220.4-9.2-76.2-1.5-107.3-22.6-183.1-27v110.7h1247.9v-85.4c-34.1 3.5-83.2 7.9-109.5 7.4z"/><path class="Q" d="m1106.1 44.1c-42.9-0.7-291.8 0.3-330.6 0.3h-254.5c-56.1 0-72.6-1.3-149.8 2.7-77.3 4-11.4-4.3-220.4-8-76.2-1.3-107.3-19.6-183.1-23.4v96.1h1247.9v-74.1c-34.1 3-83.2 6.8-109.5 6.4z"/><path class="R" d="m411.8 57.6h25.3l-11.2-40.3z"/><path class="S" d="m403.3 57.6h25.3l-11.2-40.3z"/><path class="T" d="m434.2 57.6h25.3l-11.1-40.3z"/><path class="U" d="m453.6 57.6h25.3l-11.1-40.3z"/><path class="V" d="m424.4 56.8h16.8l-7.4-26.7z"/><path class="W" d="m390.9 57.6h19.5l-8.6-20.9z"/><path class="X" d="m320.5 57.6h25.3l-11.1-40.3z"/><path class="Y" d="m312 57.6h25.3l-11.2-40.3z"/><path class="Z" d="m355.8 57.6h15.8l-7-25.1z"/><path class="a0" d="m333.2 56.8h16.8l-7.4-26.7z"/><path class="a1" d="m255.8 57.6h20.6l-9.1-23.6z"/><path class="a2" d="m247.2 57.6h25.3l-11.1-40.3z"/><path class="a3" d="m274.1 57.6h20.7l-9.2-23.6z"/><path class="a4" d="m297.6 57.6h25.3l-11.2-40.3z"/><path class="a5" d="m266.1 57.2h13.7l-6-15.7z"/><path class="a6" d="m234.9 57.6h19.5l-8.6-20.9z"/><path class="a7" d="m164.5 57.6h25.3l-11.2-40.3z"/><path class="a8" d="m156 57.6h25.2l-11.1-40.3z"/><path class="a9" d="m199.8 57.6h15.7l-6.9-25.1z"/><path class="aa" d="m177.1 56.8h16.8l-7.4-26.7z"/><path class="ab" d="m299.7 57.6h19.5l-8.6-20.9z"/><path class="ac" d="m4.6 57.6h25.3l-11.2-40.3z"/><path class="ad" d="m-3.9 57.6h25.2l-11.1-40.3z"/><path class="ae" d="m254 57.6h19.5l-8.6-20.9z"/><path class="af" d="m230.2 57.6h25.3l-11.2-40.3z"/><path class="ag" d="m750.5 57.6h15.6l-6.9-16.1z"/><path class="ah" d="m744.1 57.6h19l-8.3-27.4z"/><path class="ai" d="m764.3 57.6h15.6l-6.9-16.1z"/><path class="aj" d="m782 57.6h19l-8.4-27.4z"/><path class="ak" d="m758.3 57.3h10.3l-4.5-10.7z"/><path class="al" d="m734.9 57.6h14.6l-6.4-14.2z"/><path class="am" d="m783.5 57.6h14.7l-6.5-14.2z"/><path class="an" d="m749.2 57.6h14.7l-6.5-14.2z"/><path class="ao" d="m731.3 57.6h19l-8.3-27.4z"/><path class="ap" d="m992 57.6h15.5l-6.8-16.1z"/><path class="aq" d="m985.6 57.6h19l-8.4-27.4z"/><path class="ar" d="m1005.8 57.6h15.5l-6.8-16.1z"/><path class="as" d="m1023.4 57.6h19l-8.4-27.4z"/><path class="at" d="m999.8 57.3h10.3l-4.6-10.7z"/><path class="au" d="m976.3 57.6h14.7l-6.5-14.2z"/><path class="av" d="m990.7 57.6h14.7l-6.5-14.2z"/><path class="aw" d="m972.8 57.6h19l-8.4-27.4z"/><path class="ax" d="m175.1 57.6h25.3l-11.2-40.3z"/><path class="ay" d="m218.9 57.6h15.8l-7-25.1z"/><path class="az" d="m35.9 64.4h25.3l-11.1-40.3z"/><path class="aA" d="m196.3 56.8h16.8l-7.5-26.7z"/><path class="aB" d="m162.8 57.6h19.5l-8.6-20.9z"/><path class="aC" d="m28 55.5h25.3l-11.1-55.5z"/><path class="aD" d="m19.5 55.5h25.3l-11.2-55.5z"/><path class="aE" d="m63.3 55.5h15.8l-7-34.6z"/><path class="aF" d="m40.7 54.5h16.8l-7.4-36.9z"/><path class="aG" d="m38.7 55.5h25.2l-11.1-55.5z"/><path class="aH" d="m59.8 54.5h16.8l-7.4-36.9z"/><path class="aI" d="m26.3 55.5h19.5l-8.6-28.8z"/><path class="aJ" d="m573.5 57.6h19.5l-8.6-20.9z"/><path class="aK" d="m549.6 57.6h25.3l-11.1-40.3z"/><path class="aL" d="m111.9 61.5h25.2l-11.1-40.3z"/><path class="aM" d="m538.4 57.6h15.7l-6.9-25.1z"/><path class="aN" d="m133 60.7h16.8l-7.4-26.7z"/><path class="aO" d="m1106.4 57.6h25.3l-11.1-40.3z"/><path class="aP" d="m1097.9 57.6h25.3l-11.1-40.3z"/><path class="aQ" d="m1119.1 56.8h16.8l-7.4-26.7z"/><path class="aR" d="m1124.7 57.6h18.8l-8.3-50.3z"/><path class="aS" d="m1104.7 57.6h19.5l-8.6-20.9z"/><path class="aT" d="m1053.8 61.5h25.3l-11.1-40.3z"/><path class="aU" d="m1075 60.7h16.8l-7.4-26.7z"/><path class="aV" d="m631.3 57.6h15.6l-6.9-26.3z"/><path class="aW" d="m613.4 57.6h15.5l-6.9-26.3z"/><path class="aX" d="m589.3 57.6h25.3l-11.1-40.3z"/><path class="aY" d="m691.1 56.7h9.9l-4.4-20.8z"/><path class="aZ" d="m699.1 56.7h12.9l-5.7-40.2z"/><path class="b0" d="m704.3 57.6h18.9l-8.3-20.7z"/><path class="b1" d="m681.2 57.6h24.5l-10.8-39.9z"/><path class="b2" d="m670.3 57.6h15.3l-6.8-24.9z"/><path class="b3" d="m1045.2 46.5c-209 3.6-143.2 11.9-220.4 7.9-77.7-4-93.5-2.7-149.8-2.7h-254.5c-38.9 0-287.7-1-330.6-0.3-29.8 0.5-88.9-4.5-122.2-7.5v75.3h1247.9v-95.4c-66.9 5.1-98.6 21.4-170.4 22.7z"/><path class="b4" d="m-32.3 74.4v86.6h1247.9v-86.6z"/><path class="b5" d="m244.2 102.4c6.6-0.8 9.9-1.1 16.5-1.9 0 0-10.9-6.1-14.2-14.4-3.4-8.4-15.2-9.4-17.8-7.8-2.5 1.6-5.8-6.5-12.5-7.2-6.6-0.6-12.1 20.1-13.8 20-1.7-0.2-1.6-5.6-5.8-12.1-4-6.1-12.2-6-17.6-10.5-2.7-2.2-3.9-5.3-6.8-7.2-4.4-2.8-10.2-2.2-14.5-5.7-6.1-5.1-7.1-9.8-16.7-9.1-9.4 0.8-14.1 10.2-22.6 13.3-9.7 3.5-9.7 18.4-9.7 18.4 0 0-3-2.1-8.9-2.1-5.9 0-6.8 8.5-9.3 6.5-2.5-2-2.1-18.8-16-17.9-14 1-14.8 20.3-22.9 26.1-8 5.8-18.9 9.6-18.9 9.6q105.7 1.1 211.5 2z"/><path class="b6" d="m741.2 108.8c2.7-2.1 5.5-4.9 7-8.1 3.5-7.7 14.6-8 16.9-6.4 2.3 1.6 5.8-5.7 12.1-6 6.2-0.3 10.2 19.4 11.8 19.4 1.6-0.1 1.8-5.2 6.1-11 4-5.6 11.7-5 17-8.9 2.6-1.9 3.9-4.8 6.7-6.4 4.2-2.4 9.6-1.6 13.8-4.6 6-4.4 7.1-8.8 16-7.6 8.9 1.2 12.7 10.2 20.5 13.5 8.9 3.9 8.1 17.7 8.1 17.7 0 0 2.9-1.7 8.4-1.4 5.5 0.3 5.9 8.2 8.3 6.5 2.5-1.8 3-17.5 16-15.8 12.9 1.6 12.7 19.7 19.9 25.5 7.1 5.9 57.7 22.6 57.7 22.6-65.8-2.9-172.2-18.7-238.1-21.7-3.4-0.6-5.8-1-8.4-1.5z"/><path class="b7" d="m1158 68.5c-51.7 11-104.4 11.2-158 15.3-53 4.1-100.3 21.8-155.9 17-48.9-4.2-88.5 4.2-138 9.1-87.3 8.8-165.4 0.8-250.5-9.6-73.7-9-144.4-11.5-220.8-5.5-49.3 3.8-74 3.9-121.8-6.3-42.8-9.2-113.8-42.7-129.9-50.2-4.8-2.2-10-3.8-15.4-5.1v123.4h1247.9v-107.2c-17.9 7.7-36.7 14.6-57.6 19.1z"/><g style="opacity:0"><path class="b8" d="m95.7 97.8c-6.7-14.6-28.9-16-33.6-13.1-4.6 2.9-11.4-11.3-23.9-12.2-12.5-0.9-21.2 36-24.3 35.8-3.2-0.2-3.5-9.9-11.8-21.2-8.3-11.3-24.9-8.9-24.9-8.9 0 0-2.5-6.8-9.5-13.2v63.1q62.5-0.6 125-1.3c12.3-1.6 18.4-2.3 30.7-3.9 0 0-20.9-10.4-27.7-25.1z"/><path class="b9" d="m1215.6 71.4c-2.8-0.4-4.9-0.1-4.9-0.1 0 0-2.5-7.9-10.8-12.5-8.3-4.7-16.5 5.4-17-3.3-0.6-8.6-15.2-16.6-25-15.9-9.7 0.7-11.1 12.2-22.2 16.4-11.2 4.2-11.1 21.3-11.1 21.3 0 0-3.4-2.3-10.2-2.3-6.8 0.1-7.7 9.8-10.6 7.5-2.9-2.2-2.6-21.6-18.7-20.3-16 1.3-16.7 23.5-25.9 30.3-9.1 6.8-21.7 11.3-21.7 11.3q89 0 178.1-0.2z"/><path class="ba" d="m836.3 134.6c-2.7-2.2-5.4-4.9-6.9-8.2-3.5-7.6-14.6-7.9-16.9-6.3-2.3 1.6-5.9-5.8-12.1-6-6.3-0.3-10.3 19.4-11.8 19.3-1.6 0-1.9-5.1-6.1-11-4.1-5.5-11.8-4.9-17-8.9-2.6-1.9-3.9-4.7-6.7-6.3-4.2-2.5-9.6-1.6-13.8-4.7-6-4.4-7.2-8.8-16.1-7.5-8.8 1.2-12.6 10.2-20.4 13.5-8.9 3.8-8.2 17.7-8.2 17.7 0 0-2.8-1.8-8.3-1.4-5.6 0.3-5.9 8.2-8.4 6.4-2.5-1.7-2.9-17.4-15.9-15.8-13 1.6-12.7 19.7-19.9 25.6-7.2 5.8-57.8 22.6-57.8 22.6 65.9-3 172.3-18.7 238.1-21.8 3.4-0.6 5.9-1 8.5-1.4z"/><path class="bb" d="m853.3 137.3c-7.4-0.3-11.2-0.5-18.6-0.8 0 0 11.7-8.1 14.7-18.2 3-10.1 16.1-12.2 19.1-10.6 3 1.7 6-8 13.4-9.4 7.4-1.3 15.2 22.7 17.1 22.3 1.9-0.3 1.4-6.7 5.5-14.6 3.9-7.6 13.2-8.1 18.8-13.8 2.8-2.8 3.9-6.5 6.9-9 4.7-3.7 11.2-3.5 15.7-8 6.4-6.4 7.2-12 17.9-11.9 10.7 0.1 16.6 10.7 26.4 13.7 11.2 3.3 12.5 20.8 12.5 20.8 0 0 3.1-2.6 9.7-3.1 6.6-0.5 8.3 9.3 10.9 6.7 2.7-2.5 0.8-22.2 16.4-22.2 15.7 0 18.3 22.6 27.7 28.8 9.5 6.1 22.1 9.7 22.1 9.7q-118.1 9.9-236.2 19.6z"/><path class="bc" d="m159.7 147.2c-8.5-0.8-12.7-1.1-21.1-1.8 0 0 13.7-7 17.7-16.3 4-9.3 19-10.6 22.3-8.9 3.3 1.7 7.3-7.3 15.8-8.1 8.5-0.9 16 22 18.1 21.8 2.2-0.2 2-6.2 7.1-13.5 4.9-6.9 15.4-6.8 22.2-11.9 3.3-2.5 4.8-5.9 8.4-8.1 5.5-3.2 12.9-2.7 18.3-6.6 7.6-5.7 8.8-11 21-10.3 12.1 0.7 18.2 11 29.1 14.2 12.5 3.8 12.9 20.2 12.9 20.2 0 0 3.7-2.3 11.3-2.4 7.5-0.1 8.8 9.2 12 6.9 3.1-2.2 2.1-20.8 19.9-20 17.8 0.8 19.4 22.2 29.7 28.5 10.4 6.3 24.4 10.2 24.4 10.2q-134.6 3.2-269.1 6.1z"/><path class="bd" d="m159.1 128.9c-7.7-11.5-33.2-12.7-38.6-10.5-5.4 2.3-13.1-8.9-27.4-9.6-14.4-0.8-24.6 28.1-28.3 27.9-3.6-0.1-3.9-7.7-13.4-16.6-9.5-8.9-28.6-7.1-28.6-7.1 0 0-5-9.5-20.8-15.1-15.7-5.6-30.7 6.7-32.1-3.7-0.2-1.5-1-3-2.2-4.5v62.7q93.8-0.5 187.7-0.8c14.1-1.1 21.2-1.7 35.3-2.9 0 0-23.9-8.2-31.6-19.8z"/></g><path class="be" d="m1016 184.7l199.6-2.7v-89c-25.4 8.5-53.2 8.7-87.6 8.9-52.8 0.2-104.2 10-157.8 14.6-53 4.5-100 21.9-155.7 18.1-48.9-3.3-88.4 5.1-137.9 10.4-87.1 9.5-165.4 2.9-250.6-5.8-73.7-7.5-144.5-8.9-220.8-2.3-49.2 4.3-73.9 4.7-121.8-4.3-34.7-6.5-88-27.9-115.7-39.4v91.5z"/></g></svg>