<svg version="1.2" xmlns="http://www.w3.org/2000/svg" viewBox="0 0 1194 502" width="1194" height="502"><defs><clipPath clipPathUnits="userSpaceOnUse" id="cp1"><path d="m1168.47 502.08h-1142.95c-13.55 0-24.53-10.98-24.53-24.53v-713.97c0-13.55 10.98-24.53 24.53-24.53h1142.95c13.55 0 24.54 10.98 24.54 24.53v713.97c0 13.55-10.99 24.53-24.54 24.53z"/></clipPath><linearGradient id="P" gradientUnits="userSpaceOnUse"/><linearGradient id="g1" x2="1" href="#P" gradientTransform="matrix(-1.019,-87.676,339.14,-3.943,132.186,90.195)"><stop stop-color="#fff" stop-opacity="0"/><stop offset="1" stop-color="#ffe689" stop-opacity="1"/></linearGradient><linearGradient id="g2" x2="1" href="#P" gradientTransform="matrix(-70.946,-291.667,445.216,-108.296,330.124,396.854)"><stop offset=".45" stop-color="#c062a1"/><stop offset="1" stop-color="#1a2c74"/></linearGradient><linearGradient id="g3" x2="1" href="#P" gradientTransform="matrix(7.637,-468.414,1062.117,17.317,698.908,541.318)"><stop offset=".44" stop-color="#fd75a8"/><stop offset="1" stop-color="#5a2d81"/></linearGradient><linearGradient id="g4" x2="1" href="#P" gradientTransform="matrix(-33.737,-410.969,1223.878,-100.468,557.721,511.936)"><stop offset=".44" stop-color="#fd75a8"/><stop offset="1" stop-color="#5a2d81"/></linearGradient><linearGradient id="g5" x2="1" href="#P" gradientTransform="matrix(37.876,-310.582,1450.134,176.847,489.902,423.983)"><stop offset=".45" stop-color="#c062a1"/><stop offset="1" stop-color="#4b3d7c"/></linearGradient><linearGradient id="g6" x2="1" href="#P" gradientTransform="matrix(41.066,-246.399,737.827,122.971,155.48,421.081)"><stop offset=".45" stop-color="#c062a1"/><stop offset="1" stop-color="#1a2c74"/></linearGradient><linearGradient id="g7" x2="1" href="#P" gradientTransform="matrix(-41.792,-365.68,1232.677,-140.877,912.153,569.287)"><stop offset=".45" stop-color="#c062a1"/><stop offset="1" stop-color="#1a2c74"/></linearGradient><linearGradient id="g8" x2="1" href="#P" gradientTransform="matrix(-9.326,83.934,-288.527,-32.059,161.952,372.687)"><stop stop-color="#fd75a8"/><stop offset="1" stop-color="#1a2c74"/></linearGradient><linearGradient id="g9" x2="1" href="#P" gradientTransform="matrix(2.181,53.436,-175.855,7.178,851.418,404.631)"><stop stop-color="#fd75a8"/><stop offset="1" stop-color="#1a2c74"/></linearGradient><linearGradient id="g10" x2="1" href="#P" gradientTransform="matrix(0,-276.582,2795.643,0,585.529,660.35)"><stop stop-color="#fd75a8"/><stop offset="1" stop-color="#1a2c74"/></linearGradient><linearGradient id="g11" x2="1" href="#P" gradientTransform="matrix(0,154.943,-382.355,0,32.735,336.039)"><stop stop-color="#fd75a8"/><stop offset="1" stop-color="#1a2c74"/></linearGradient><linearGradient id="g12" x2="1" href="#P" gradientTransform="matrix(0,86.917,-240.962,0,1114.958,363.059)"><stop stop-color="#fd75a8"/><stop offset="1" stop-color="#1a2c74"/></linearGradient><linearGradient id="g13" x2="1" href="#P" gradientTransform="matrix(-2.181,53.436,-175.855,-7.178,726.137,430.384)"><stop stop-color="#fd75a8"/><stop offset="1" stop-color="#1a2c74"/></linearGradient><linearGradient id="g14" x2="1" href="#P" gradientTransform="matrix(8.143,105.863,-413.157,31.781,969.21,362.157)"><stop stop-color="#fd75a8"/><stop offset="1" stop-color="#1a2c74"/></linearGradient><linearGradient id="g15" x2="1" href="#P" gradientTransform="matrix(0,86.203,-392.691,0,290.672,407.157)"><stop stop-color="#fd75a8"/><stop offset="1" stop-color="#1a2c74"/></linearGradient><linearGradient id="g16" x2="1" href="#P" gradientTransform="matrix(36.682,170.356,-356.188,76.696,22.703,353.088)"><stop stop-color="#fd75a8"/><stop offset="1" stop-color="#1a2c74"/></linearGradient><linearGradient id="g17" x2="1" href="#P" gradientTransform="matrix(-12.862,-138.905,853.685,-79.045,596.972,624.694)"><stop stop-color="#fd75a8"/><stop offset="1" stop-color="#1a2c74"/></linearGradient></defs><style>.a{opacity:0;fill:url(#g1)}.b{fill:url(#g2)}.c{fill:url(#g3)}.d{fill:url(#g4)}.e{fill:url(#g5)}.f{fill:url(#g6)}.g{fill:url(#g7)}.h{opacity:0;fill:url(#g8)}.i{opacity:0;fill:url(#g9)}.j{opacity:0;fill:url(#g10)}.k{fill:url(#g11)}.l{fill:url(#g12)}.m{fill:url(#g13)}.n{fill:url(#g14)}.o{fill:url(#g15)}.p{fill:url(#g16)}.q{opacity:0;fill:url(#g17)}</style><g clip-path="url(#cp1)"><g style="mix-blend-mode:soft-light"><path class="a" d="m-34.3 89.1h355.2c-29-3.9-56.9-11.6-81.7-26.8-11-6.7-24.8-15-35.5-7.8-6.9 4.6-10.1 14.8-18.3 16.3-8.8 1.6-15.2-8-18.6-16.2-3.5-8.2-8.7-18.1-17.6-17.9-8 0.1-13.5 8.6-21.2 10.8-10.8 3.1-21.1-7.3-24.7-17.9-3.5-10.7-19.1-29.3-41.1-29.3-32.1 0-37.4 27.7-50.6 35.6-17.1 10.3-29.4-5.9-45.9-9.2z"/></g><path class="b" d="m-32.3 459.6h931.9c-13-4.2-25.7-9.6-38.9-13.7-33-10.2-67.1-14.8-99.7-26.5-34.8-12.4-67.6-26.9-102.8-31.6-43.9-5.8-74.6-11.8-108.9-42.6-18.7-16.8-39.4-27.3-61-41.1-22.9-14.7-50-44.2-73.5-53.6-16.2-6.5-27-15.8-43.9-24.1-24.9-12.1-49.4-19.2-66-40.6-11.3-14.5-46.4-45.1-64.4-56.3-18.1-11.2-29.5 0.5-59.9-7.1-23.6-17.9-36.7-20.8-63.9-34.4-12.8-6.4-27.7-16-39.8-27.2-28.7-26.8-74.7 34.1-106.4 55.5-1 0.7-1.9 1.4-2.8 2z"/><path class="c" d="m1215.6 98.7c-4.9-6.1-9.8-12.2-15.4-17.7-8.5-8.5-27.4-4.8-33.8-8.5-15.7-9-18.1-15.5-36.4-11.8-12.7 2.5-43.2 26.5-65.3 48.9-24.2 24.3-37.9 28-58.2 43.3-6.3 4.7-18.5 7.4-23.7 2.5-15.6-14.6-33-21.1-59.7-0.2-41.7 32.4-106.2 58.7-151.6 114.6-26.6 32.7-105 24.4-139 38.3-44.4 18.1-86.7 49.9-130.7 69.2-40.1 17.7-103 19.8-147.5 49.4h861.3z"/><path class="d" d="m1215.6 530.7v-304.2c-2.6-2.7-5-5.2-7.3-7.7-14.6-15.5-59.4-28.6-75.1-43.7-14-13.5-36-38.1-55-38.1-16.9 0-21.7 8.3-38.1 19.5-20.6 14.1-52.2 32.9-65.7 47.7-22.8 25.1-30.1 4.5-58 17.2-13.1 5.9-26.9 14.9-43.1 10.1-43.1-12.7-72.1-43.2-99-30.4-12.9 6.1-32.3 22.1-45.5 23.1-20.8 1.5-20.5 24.1-41.3 31.9-25.9 9.8-26.8-3.8-50.2 10.9-53.3 33.8-76.1 15.5-126.9 50.8-19.9 13.9-40.3 14.4-63.4 20.3-10.5 2.7-57.6-9.3-68.5-7.6-25.1 3.8-116.7 21.6-139.6 30.4-12.7 4.9-152.1 14.4-162.4 22.9-35.5 29.1-31.8 112-42.4 146.9z"/><path class="e" d="m1061.3 311.9c-6.2-3.6-89.7-7.7-97.4-9.8-13.7-3.8-68.6-11.4-83.6-13-6.6-0.7-34.8 4.4-41.1 3.2-13.8-2.5-19.9 23.8-31.9 17.9-30.4-15.1-50.2-33.9-82.1-48.3-14-6.3-14.6-0.5-30.1-4.7-12.5-3.3-12.3-13-24.8-13.7-7.8-0.4-19.5-7.2-27.2-9.9-16.2-5.4-33.5 7.6-59.3 13.1-9.7 2-18-1.8-25.9-4.4-16.7-5.4-21.1 3.4-34.8-7.3-8-6.4-26.9-18.7-39.3-24.7-9.9-4.8-12.7-4.1-22.8-4.1-11.4 0-27 10.5-35.4 16.3-9.4 6.5-33.9 12.1-42.6 18.7-17 13-48.4 34.3-73 36-8.7 0.6-15.2-1.7-24 0.2-9.8 2.2-19.4 8.8-27.6 13.2-25.5 13.8-47.9 25.7-74.6 37.1-11.1 4.8-22.1 13-33.7 16.6-12.6 3.9-13.4-0.7-24.2-1.9-8.3-0.9-16.4 3-23.6 5-14.5 4.2-39.5 7.1-49.3 14.6-40.1 3.9-60 9.5-79.4 13q-2.9 0.6-5.9 1.2v10h1004.3c40.6-2.5 81.3-4.4 122-4.6-16.4-1.4-5.8-53.9-32.7-69.7z"/><path class="f" d="m-32.3 376.4h515.8c-15.8-4.3-31.7-9.3-46.9-12.2-19.8-3.8-40.3-9.9-81.3-14.2-10-8.1-35.6-11.3-50.4-15.8-7.4-2.2-15.7-6.4-24.2-5.4-11.1 1.3-11.8 6.3-24.8 2.1-11.8-3.9-23.1-12.9-34.4-18.1-27.4-12.3-50.3-25.3-76.4-40.2-8.4-4.8-18.2-12.1-28.2-14.4-9-2.1-15.6 0.4-24.6-0.3-25.1-1.8-57.3-24.9-74.7-39-8.9-7.2-34-13.3-43.6-20.4-1.8-1.3-4-2.8-6.3-4.5z"/><path class="g" d="m1215.6 242.5c-3.4 0.3-6.5 1.3-11.6 3.9-11.6 6.1-29.4 18.4-37 24.7-12.9 10.8-17 1.9-32.7 7.3-7.4 2.6-15.2 6.4-24.3 4.4-24.3-5.4-40.6-18.5-55.8-13-7.3 2.6-18.2 9.4-25.6 9.8-11.8 0.7-11.6 10.4-23.3 13.7-14.6 4.2-15.1-1.6-28.3 4.7-30 14.4-42.9 6.6-71.5 21.7-11.2 5.9-22.7 6.1-35.7 8.7-5.9 1.1-32.5-4-38.6-3.3-14.2 1.6-73.2 42-86.1 45.8-7.2 2.1-54 20.5-59.8 24.1-25.3 15.8-39.6 21.1-55.1 22.4 38.3 0.3 76.6 2.2 114.8 4.7h470.6z"/><path class="h" d="m244.2 448.4c6.6-0.8 9.9-1.1 16.5-1.9 0 0-10.9-6.1-14.2-14.4-3.4-8.4-15.2-9.4-17.8-7.8-2.5 1.6-5.8-6.5-12.5-7.2-6.6-0.6-12.1 20.1-13.8 20-1.7-0.2-1.6-5.6-5.8-12.1-4-6.1-12.2-6-17.6-10.5-2.7-2.2-3.9-5.3-6.8-7.2-4.4-2.8-10.2-2.2-14.5-5.7-6.1-5.1-7.1-9.8-16.7-9.1-9.4 0.8-14.1 10.2-22.6 13.3-9.7 3.5-9.7 18.4-9.7 18.4 0 0-3-2.1-8.9-2.1-5.9 0-6.8 8.5-9.3 6.5-2.5-2-2.1-18.8-16-17.9-14 1-14.8 20.3-22.9 26.1-8 5.8-18.9 9.6-18.9 9.6q105.7 1.1 211.5 2z"/><path class="i" d="m741.2 454.8c2.7-2.1 5.5-4.9 7-8.1 3.5-7.7 14.6-8 16.9-6.4 2.3 1.6 5.8-5.7 12.1-6 6.2-0.3 10.2 19.4 11.8 19.4 1.6-0.1 1.8-5.2 6.1-11 4-5.6 11.7-5 17-8.9 2.6-1.9 3.9-4.8 6.7-6.4 4.2-2.4 9.6-1.6 13.8-4.6 6-4.4 7.1-8.8 16-7.6 8.9 1.2 12.7 10.2 20.5 13.5 8.9 3.9 8.1 17.7 8.1 17.7 0 0 2.9-1.7 8.4-1.4 5.5 0.3 5.9 8.2 8.3 6.5 2.5-1.8 3-17.5 16-15.8 12.9 1.6 12.7 19.7 19.9 25.5 7.1 5.9 57.7 22.6 57.7 22.6-65.8-2.9-172.2-18.7-238.1-21.7-3.4-0.6-5.8-1-8.4-1.5z"/><path class="j" d="m1158 414.5c-51.7 11-104.4 11.2-158 15.3-53 4.1-100.3 21.8-155.9 17-48.9-4.2-88.5 4.2-138 9.1-87.3 8.8-165.4 0.8-250.5-9.6-73.7-9-144.4-11.5-220.8-5.5-49.3 3.8-74 3.9-121.8-6.3-42.8-9.2-113.8-42.7-129.9-50.2-4.8-2.2-10-3.8-15.4-5.1v123.4h1247.9v-107.2c-17.9 7.7-36.7 14.6-57.6 19.1z"/><g style="opacity:0"><path class="k" d="m95.7 443.8c-6.7-14.6-28.9-16-33.6-13.1-4.6 2.9-11.4-11.3-23.9-12.2-12.5-0.9-21.2 36-24.3 35.8-3.2-0.2-3.5-9.9-11.8-21.2-8.3-11.3-24.9-8.9-24.9-8.9 0 0-2.5-6.8-9.5-13.2v63.1q62.5-0.6 125-1.3c12.3-1.6 18.4-2.3 30.7-3.9 0 0-20.9-10.4-27.7-25.1z"/><path class="l" d="m1215.6 417.4c-2.8-0.4-4.9-0.1-4.9-0.1 0 0-2.5-7.9-10.8-12.5-8.3-4.7-16.5 5.4-17-3.3-0.6-8.6-15.2-16.6-25-15.9-9.7 0.7-11.1 12.2-22.2 16.4-11.2 4.2-11.1 21.3-11.1 21.3 0 0-3.4-2.3-10.2-2.3-6.8 0.1-7.7 9.8-10.6 7.5-2.9-2.2-2.6-21.6-18.7-20.3-16 1.3-16.7 23.5-25.9 30.3-9.1 6.8-21.7 11.3-21.7 11.3q89 0 178.1-0.2z"/><path class="m" d="m836.3 480.6c-2.7-2.2-5.4-4.9-6.9-8.2-3.5-7.6-14.6-7.9-16.9-6.3-2.3 1.6-5.9-5.8-12.1-6-6.3-0.3-10.3 19.4-11.8 19.3-1.6 0-1.9-5.1-6.1-11-4.1-5.5-11.8-4.9-17-8.9-2.6-1.9-3.9-4.7-6.7-6.3-4.2-2.5-9.6-1.6-13.8-4.7-6-4.4-7.2-8.8-16.1-7.5-8.8 1.2-12.6 10.2-20.4 13.5-8.9 3.8-8.2 17.7-8.2 17.7 0 0-2.8-1.8-8.3-1.4-5.6 0.3-5.9 8.2-8.4 6.4-2.5-1.7-2.9-17.4-15.9-15.8-13 1.6-12.7 19.7-19.9 25.6-7.2 5.8-57.8 22.6-57.8 22.6 65.9-3 172.3-18.7 238.1-21.8 3.4-0.6 5.9-1 8.5-1.4z"/><path class="n" d="m853.3 483.3c-7.4-0.3-11.2-0.5-18.6-0.8 0 0 11.7-8.1 14.7-18.2 3-10.1 16.1-12.2 19.1-10.6 3 1.7 6-8 13.4-9.4 7.4-1.3 15.2 22.7 17.1 22.3 1.9-0.3 1.4-6.7 5.5-14.6 3.9-7.6 13.2-8.1 18.8-13.8 2.8-2.8 3.9-6.5 6.9-9 4.7-3.7 11.2-3.5 15.7-8 6.4-6.4 7.2-12 17.9-11.9 10.7 0.1 16.6 10.7 26.4 13.7 11.2 3.3 12.5 20.8 12.5 20.8 0 0 3.1-2.6 9.7-3.1 6.6-0.5 8.3 9.3 10.9 6.7 2.7-2.5 0.8-22.2 16.4-22.2 15.7 0 18.3 22.6 27.7 28.8 9.5 6.1 22.1 9.7 22.1 9.7q-118.1 9.9-236.2 19.6z"/><path class="o" d="m159.7 493.2c-8.5-0.8-12.7-1.1-21.1-1.8 0 0 13.7-7 17.7-16.3 4-9.3 19-10.6 22.3-8.9 3.3 1.7 7.3-7.3 15.8-8.1 8.5-0.9 16 22 18.1 21.8 2.2-0.2 2-6.2 7.1-13.5 4.9-6.9 15.4-6.8 22.2-11.9 3.3-2.5 4.8-5.9 8.4-8.1 5.5-3.2 12.9-2.7 18.3-6.6 7.6-5.7 8.8-11 21-10.3 12.1 0.7 18.2 11 29.1 14.2 12.5 3.8 12.9 20.2 12.9 20.2 0 0 3.7-2.3 11.3-2.4 7.5-0.1 8.8 9.2 12 6.9 3.1-2.2 2.1-20.8 19.9-20 17.8 0.8 19.4 22.2 29.7 28.5 10.4 6.3 24.4 10.2 24.4 10.2q-134.6 3.2-269.1 6.1z"/><path class="p" d="m159.1 474.9c-7.7-11.5-33.2-12.7-38.6-10.5-5.4 2.3-13.1-8.9-27.4-9.6-14.4-0.8-24.6 28.1-28.3 27.9-3.6-0.1-3.9-7.7-13.4-16.6-9.5-8.9-28.6-7.1-28.6-7.1 0 0-5-9.5-20.8-15.1-15.7-5.6-30.7 6.7-32.1-3.7-0.2-1.5-1-3-2.2-4.5v62.7q93.8-0.5 187.7-0.8c14.1-1.1 21.2-1.7 35.3-2.9 0 0-23.9-8.2-31.6-19.8z"/></g><path class="q" d="m1016 530.7l199.6-2.7v-89c-25.4 8.5-53.2 8.7-87.6 8.9-52.8 0.2-104.2 10-157.8 14.6-53 4.5-100 21.9-155.7 18.1-48.9-3.3-88.4 5.1-137.9 10.4-87.1 9.5-165.4 2.9-250.6-5.8-73.7-7.5-144.5-8.9-220.8-2.3-49.2 4.3-73.9 4.7-121.8-4.3-34.7-6.5-88-27.9-115.7-39.4v91.5z"/></g></svg>