<svg version="1.2" xmlns="http://www.w3.org/2000/svg" viewBox="0 0 1194 448" width="1194" height="448"><defs><clipPath clipPathUnits="userSpaceOnUse" id="cp1"><path d="m1168.47 448.08h-1142.95c-13.55 0-24.53-10.98-24.53-24.53v-713.97c0-13.55 10.98-24.53 24.53-24.53h1142.95c13.55 0 24.54 10.98 24.54 24.53v713.97c0 13.55-10.99 24.53-24.54 24.53z"/></clipPath><linearGradient id="P" gradientUnits="userSpaceOnUse"/><linearGradient id="g1" x2="1" href="#P" gradientTransform="matrix(0,125.005,-125.005,0,659.503,127.029)"><stop offset=".01" stop-color="#fcf17f"/><stop offset="1" stop-color="#ffb821"/></linearGradient><linearGradient id="g2" x2="1" href="#P" gradientTransform="matrix(-70.946,-291.667,445.216,-108.296,330.124,342.854)"><stop offset=".45" stop-color="#c062a1"/><stop offset="1" stop-color="#1a2c74"/></linearGradient><linearGradient id="g3" x2="1" href="#P" gradientTransform="matrix(7.637,-468.414,1062.117,17.317,698.908,487.318)"><stop offset=".44" stop-color="#fd75a8"/><stop offset="1" stop-color="#5a2d81"/></linearGradient><linearGradient id="g4" x2="1" href="#P" gradientTransform="matrix(-33.737,-410.969,1223.878,-100.468,557.721,457.936)"><stop offset=".44" stop-color="#fd75a8"/><stop offset="1" stop-color="#5a2d81"/></linearGradient><linearGradient id="g5" x2="1" href="#P" gradientTransform="matrix(37.876,-310.582,1450.134,176.847,489.902,369.983)"><stop offset=".45" stop-color="#c062a1"/><stop offset="1" stop-color="#4b3d7c"/></linearGradient><linearGradient id="g6" x2="1" href="#P" gradientTransform="matrix(41.066,-246.399,737.827,122.971,155.48,367.081)"><stop offset=".45" stop-color="#c062a1"/><stop offset="1" stop-color="#1a2c74"/></linearGradient><linearGradient id="g7" x2="1" href="#P" gradientTransform="matrix(-41.792,-365.68,1232.677,-140.877,912.153,515.287)"><stop offset=".45" stop-color="#c062a1"/><stop offset="1" stop-color="#1a2c74"/></linearGradient><linearGradient id="g8" x2="1" href="#P" gradientTransform="matrix(2.299,-103.439,3189.561,70.877,641.384,386.015)"><stop stop-color="#fd75a8"/><stop offset="1" stop-color="#1a2c74"/></linearGradient><linearGradient id="g9" x2="1" href="#P" gradientTransform="matrix(1.915,-86.161,53.66,1.192,611.821,380.881)"><stop stop-color="#fd75a8"/><stop offset="1" stop-color="#1a2c74"/></linearGradient><linearGradient id="g10" x2="1" href="#P" gradientTransform="matrix(1.915,-86.161,53.66,1.192,603.304,380.69)"><stop stop-color="#fd75a8"/><stop offset="1" stop-color="#1a2c74"/></linearGradient><linearGradient id="g11" x2="1" href="#P" gradientTransform="matrix(1.915,-86.161,53.66,1.192,634.231,381.382)"><stop stop-color="#fd75a8"/><stop offset="1" stop-color="#1a2c74"/></linearGradient><linearGradient id="g12" x2="1" href="#P" gradientTransform="matrix(1.915,-86.161,53.66,1.192,653.621,381.815)"><stop stop-color="#fd75a8"/><stop offset="1" stop-color="#1a2c74"/></linearGradient><linearGradient id="g13" x2="1" href="#P" gradientTransform="matrix(1.915,-86.161,53.66,1.192,631.262,381.319)"><stop stop-color="#fd75a8"/><stop offset="1" stop-color="#1a2c74"/></linearGradient><linearGradient id="g14" x2="1" href="#P" gradientTransform="matrix(1.92,-86.414,79.788,1.773,609.406,380.955)"><stop stop-color="#fd75a8"/><stop offset="1" stop-color="#1a2c74"/></linearGradient><linearGradient id="g15" x2="1" href="#P" gradientTransform="matrix(1.915,-86.161,53.66,1.192,520.592,378.841)"><stop stop-color="#fd75a8"/><stop offset="1" stop-color="#1a2c74"/></linearGradient><linearGradient id="g16" x2="1" href="#P" gradientTransform="matrix(1.915,-86.161,53.66,1.192,512.075,378.651)"><stop stop-color="#fd75a8"/><stop offset="1" stop-color="#1a2c74"/></linearGradient><linearGradient id="g17" x2="1" href="#P" gradientTransform="matrix(1.915,-86.162,53.66,1.192,563.522,379.8)"><stop stop-color="#fd75a8"/><stop offset="1" stop-color="#1a2c74"/></linearGradient><linearGradient id="g18" x2="1" href="#P" gradientTransform="matrix(1.915,-86.161,53.66,1.192,540.033,379.279)"><stop stop-color="#fd75a8"/><stop offset="1" stop-color="#1a2c74"/></linearGradient><linearGradient id="g19" x2="1" href="#P" gradientTransform="matrix(1.92,-86.414,79.789,1.773,518.177,378.91)"><stop stop-color="#fd75a8"/><stop offset="1" stop-color="#1a2c74"/></linearGradient><linearGradient id="g20" x2="1" href="#P" gradientTransform="matrix(1.915,-86.161,53.66,1.192,204.798,371.781)"><stop stop-color="#fd75a8"/><stop offset="1" stop-color="#1a2c74"/></linearGradient><linearGradient id="g21" x2="1" href="#P" gradientTransform="matrix(1.915,-86.161,53.66,1.192,196.282,371.59)"><stop stop-color="#fd75a8"/><stop offset="1" stop-color="#1a2c74"/></linearGradient><linearGradient id="g22" x2="1" href="#P" gradientTransform="matrix(1.92,-86.414,79.789,1.773,202.385,371.829)"><stop stop-color="#fd75a8"/><stop offset="1" stop-color="#1a2c74"/></linearGradient><linearGradient id="g23" x2="1" href="#P" gradientTransform="matrix(1.92,-86.414,79.79,1.773,472.563,377.887)"><stop stop-color="#fd75a8"/><stop offset="1" stop-color="#1a2c74"/></linearGradient><linearGradient id="g24" x2="1" href="#P" gradientTransform="matrix(1.915,-86.161,53.66,1.192,430.294,376.822)"><stop stop-color="#fd75a8"/><stop offset="1" stop-color="#1a2c74"/></linearGradient><linearGradient id="g25" x2="1" href="#P" gradientTransform="matrix(1.915,-86.161,53.66,1.192,375.231,375.591)"><stop stop-color="#fd75a8"/><stop offset="1" stop-color="#1a2c74"/></linearGradient><linearGradient id="g26" x2="1" href="#P" gradientTransform="matrix(1.915,-86.162,53.659,1.192,426.678,376.741)"><stop stop-color="#fd75a8"/><stop offset="1" stop-color="#1a2c74"/></linearGradient><linearGradient id="g27" x2="1" href="#P" gradientTransform="matrix(1.92,-86.414,79.789,1.773,278.562,373.475)"><stop stop-color="#fd75a8"/><stop offset="1" stop-color="#1a2c74"/></linearGradient><linearGradient id="g28" x2="1" href="#P" gradientTransform="matrix(1.915,-86.161,53.66,1.192,236.292,372.443)"><stop stop-color="#fd75a8"/><stop offset="1" stop-color="#1a2c74"/></linearGradient><linearGradient id="g29" x2="1" href="#P" gradientTransform="matrix(1.915,-86.161,53.66,1.192,232.676,372.361)"><stop stop-color="#fd75a8"/><stop offset="1" stop-color="#1a2c74"/></linearGradient><linearGradient id="g30" x2="1" href="#P" gradientTransform="matrix(1.915,-86.161,53.66,1.192,403.189,376.219)"><stop stop-color="#fd75a8"/><stop offset="1" stop-color="#1a2c74"/></linearGradient><linearGradient id="g31" x2="1" href="#P" gradientTransform="matrix(1.92,-86.414,79.789,1.773,381.334,375.841)"><stop stop-color="#fd75a8"/><stop offset="1" stop-color="#1a2c74"/></linearGradient><linearGradient id="g32" x2="1" href="#P" gradientTransform="matrix(1.92,-86.414,79.789,1.773,791.865,385.047)"><stop stop-color="#fd75a8"/><stop offset="1" stop-color="#1a2c74"/></linearGradient><linearGradient id="g33" x2="1" href="#P" gradientTransform="matrix(1.915,-86.161,53.66,1.192,749.596,383.961)"><stop stop-color="#fd75a8"/><stop offset="1" stop-color="#1a2c74"/></linearGradient><linearGradient id="g34" x2="1" href="#P" gradientTransform="matrix(1.915,-86.161,53.66,1.192,312.116,374.156)"><stop stop-color="#fd75a8"/><stop offset="1" stop-color="#1a2c74"/></linearGradient><linearGradient id="g35" x2="1" href="#P" gradientTransform="matrix(1.915,-86.162,53.66,1.192,745.98,383.88)"><stop stop-color="#fd75a8"/><stop offset="1" stop-color="#1a2c74"/></linearGradient><linearGradient id="g36" x2="1" href="#P" gradientTransform="matrix(1.915,-86.161,53.661,1.192,340.074,374.785)"><stop stop-color="#fd75a8"/><stop offset="1" stop-color="#1a2c74"/></linearGradient><linearGradient id="g37" x2="1" href="#P" gradientTransform="matrix(1.914,-86.131,50.481,1.122,836.476,385.885)"><stop stop-color="#fd75a8"/><stop offset="1" stop-color="#1a2c74"/></linearGradient><linearGradient id="g38" x2="1" href="#P" gradientTransform="matrix(1.914,-86.131,50.481,1.122,818.501,385.483)"><stop stop-color="#fd75a8"/><stop offset="1" stop-color="#1a2c74"/></linearGradient><linearGradient id="g39" x2="1" href="#P" gradientTransform="matrix(1.915,-86.161,53.659,1.192,789.271,384.848)"><stop stop-color="#fd75a8"/><stop offset="1" stop-color="#1a2c74"/></linearGradient><linearGradient id="g40" x2="1" href="#P" gradientTransform="matrix(1.912,-86.035,40.683,.904,893.813,387.113)"><stop stop-color="#fd75a8"/><stop offset="1" stop-color="#1a2c74"/></linearGradient><linearGradient id="g41" x2="1" href="#P" gradientTransform="matrix(1.909,-85.906,27.349,.608,861.882,386.326)"><stop stop-color="#fd75a8"/><stop offset="1" stop-color="#1a2c74"/></linearGradient><linearGradient id="g42" x2="1" href="#P" gradientTransform="matrix(1.92,-86.397,78.076,1.735,922.199,387.96)"><stop stop-color="#fd75a8"/><stop offset="1" stop-color="#1a2c74"/></linearGradient><linearGradient id="g43" x2="1" href="#P" gradientTransform="matrix(1.914,-86.151,52.507,1.167,880.365,386.879)"><stop stop-color="#fd75a8"/><stop offset="1" stop-color="#1a2c74"/></linearGradient><linearGradient id="g44" x2="1" href="#P" gradientTransform="matrix(1.914,-86.15,52.506,1.167,877.391,386.811)"><stop stop-color="#fd75a8"/><stop offset="1" stop-color="#1a2c74"/></linearGradient><linearGradient id="g45" x2="1" href="#P" gradientTransform="matrix(1.914,-86.151,52.507,1.167,918.778,387.737)"><stop stop-color="#fd75a8"/><stop offset="1" stop-color="#1a2c74"/></linearGradient><linearGradient id="g46" x2="1" href="#P" gradientTransform="matrix(1.914,-86.131,50.482,1.122,835.232,385.857)"><stop stop-color="#fd75a8"/><stop offset="1" stop-color="#1a2c74"/></linearGradient><linearGradient id="g47" x2="1" href="#P" gradientTransform="matrix(1.913,-86.085,45.879,1.02,818.397,385.457)"><stop stop-color="#fd75a8"/><stop offset="1" stop-color="#1a2c74"/></linearGradient><linearGradient id="g48" x2="1" href="#P" gradientTransform="matrix(1.92,-86.414,79.789,1.773,318.219,374.391)"><stop stop-color="#fd75a8"/><stop offset="1" stop-color="#1a2c74"/></linearGradient><linearGradient id="g49" x2="1" href="#P" gradientTransform="matrix(2.329,-104.789,1157.954,25.732,585.089,370.722)"><stop stop-color="#fd75a8"/><stop offset="1" stop-color="#1a2c74"/></linearGradient><linearGradient id="g50" x2="1" href="#P" gradientTransform="matrix(2.085,-93.845,1151.382,25.586,586.5,372.269)"><stop stop-color="#1a2c74"/><stop offset="1" stop-color="#fd75a8"/></linearGradient><linearGradient id="g51" x2="1" href="#P" gradientTransform="matrix(1.915,-86.161,53.66,1.192,390.469,394.346)"><stop stop-color="#fd75a8"/><stop offset="1" stop-color="#1a2c74"/></linearGradient><linearGradient id="g52" x2="1" href="#P" gradientTransform="matrix(1.915,-86.161,53.66,1.192,381.952,394.156)"><stop stop-color="#fd75a8"/><stop offset="1" stop-color="#1a2c74"/></linearGradient><linearGradient id="g53" x2="1" href="#P" gradientTransform="matrix(1.915,-86.161,53.66,1.192,412.879,394.847)"><stop stop-color="#fd75a8"/><stop offset="1" stop-color="#1a2c74"/></linearGradient><linearGradient id="g54" x2="1" href="#P" gradientTransform="matrix(1.915,-86.161,53.66,1.192,432.269,395.281)"><stop stop-color="#fd75a8"/><stop offset="1" stop-color="#1a2c74"/></linearGradient><linearGradient id="g55" x2="1" href="#P" gradientTransform="matrix(1.915,-86.161,53.66,1.192,409.91,394.784)"><stop stop-color="#fd75a8"/><stop offset="1" stop-color="#1a2c74"/></linearGradient><linearGradient id="g56" x2="1" href="#P" gradientTransform="matrix(1.92,-86.413,79.789,1.773,388.055,394.42)"><stop stop-color="#fd75a8"/><stop offset="1" stop-color="#1a2c74"/></linearGradient><linearGradient id="g57" x2="1" href="#P" gradientTransform="matrix(1.915,-86.161,53.66,1.192,299.24,392.307)"><stop stop-color="#fd75a8"/><stop offset="1" stop-color="#1a2c74"/></linearGradient><linearGradient id="g58" x2="1" href="#P" gradientTransform="matrix(1.915,-86.161,53.66,1.192,290.723,392.116)"><stop stop-color="#fd75a8"/><stop offset="1" stop-color="#1a2c74"/></linearGradient><linearGradient id="g59" x2="1" href="#P" gradientTransform="matrix(1.915,-86.161,53.66,1.192,342.17,393.265)"><stop stop-color="#fd75a8"/><stop offset="1" stop-color="#1a2c74"/></linearGradient><linearGradient id="g60" x2="1" href="#P" gradientTransform="matrix(1.915,-86.161,53.66,1.192,318.681,392.745)"><stop stop-color="#fd75a8"/><stop offset="1" stop-color="#1a2c74"/></linearGradient><linearGradient id="g61" x2="1" href="#P" gradientTransform="matrix(1.129,-50.813,43.979,.977,251.471,376.168)"><stop stop-color="#fd75a8"/><stop offset="1" stop-color="#1a2c74"/></linearGradient><linearGradient id="g62" x2="1" href="#P" gradientTransform="matrix(1.915,-86.161,53.66,1.192,225.899,394.156)"><stop stop-color="#fd75a8"/><stop offset="1" stop-color="#1a2c74"/></linearGradient><linearGradient id="g63" x2="1" href="#P" gradientTransform="matrix(1.129,-50.813,43.979,.977,269.797,376.464)"><stop stop-color="#fd75a8"/><stop offset="1" stop-color="#1a2c74"/></linearGradient><linearGradient id="g64" x2="1" href="#P" gradientTransform="matrix(1.915,-86.161,53.659,1.192,276.217,395.281)"><stop stop-color="#fd75a8"/><stop offset="1" stop-color="#1a2c74"/></linearGradient><linearGradient id="g65" x2="1" href="#P" gradientTransform="matrix(1.129,-50.813,43.979,.977,263.031,376.367)"><stop stop-color="#fd75a8"/><stop offset="1" stop-color="#1a2c74"/></linearGradient><linearGradient id="g66" x2="1" href="#P" gradientTransform="matrix(1.92,-86.413,79.789,1.773,232.002,394.42)"><stop stop-color="#fd75a8"/><stop offset="1" stop-color="#1a2c74"/></linearGradient><linearGradient id="g67" x2="1" href="#P" gradientTransform="matrix(1.915,-86.161,53.66,1.192,143.187,392.307)"><stop stop-color="#fd75a8"/><stop offset="1" stop-color="#1a2c74"/></linearGradient><linearGradient id="g68" x2="1" href="#P" gradientTransform="matrix(1.915,-86.161,53.66,1.192,134.67,392.116)"><stop stop-color="#fd75a8"/><stop offset="1" stop-color="#1a2c74"/></linearGradient><linearGradient id="g69" x2="1" href="#P" gradientTransform="matrix(1.915,-86.161,53.66,1.192,186.117,393.265)"><stop stop-color="#fd75a8"/><stop offset="1" stop-color="#1a2c74"/></linearGradient><linearGradient id="g70" x2="1" href="#P" gradientTransform="matrix(1.915,-86.161,53.66,1.192,162.629,392.745)"><stop stop-color="#fd75a8"/><stop offset="1" stop-color="#1a2c74"/></linearGradient><linearGradient id="g71" x2="1" href="#P" gradientTransform="matrix(1.92,-86.413,79.789,1.773,296.826,392.375)"><stop stop-color="#fd75a8"/><stop offset="1" stop-color="#1a2c74"/></linearGradient><linearGradient id="g72" x2="1" href="#P" gradientTransform="matrix(1.915,-86.161,53.66,1.192,-16.553,385.246)"><stop stop-color="#fd75a8"/><stop offset="1" stop-color="#1a2c74"/></linearGradient><linearGradient id="g73" x2="1" href="#P" gradientTransform="matrix(1.915,-86.161,53.66,1.192,-25.07,385.056)"><stop stop-color="#fd75a8"/><stop offset="1" stop-color="#1a2c74"/></linearGradient><linearGradient id="g74" x2="1" href="#P" gradientTransform="matrix(1.92,-86.413,79.789,1.773,251.211,391.352)"><stop stop-color="#fd75a8"/><stop offset="1" stop-color="#1a2c74"/></linearGradient><linearGradient id="g75" x2="1" href="#P" gradientTransform="matrix(1.915,-86.161,53.66,1.192,208.942,390.288)"><stop stop-color="#fd75a8"/><stop offset="1" stop-color="#1a2c74"/></linearGradient><linearGradient id="g76" x2="1" href="#P" gradientTransform="matrix(.771,-34.675,33.081,.735,749.218,367.762)"><stop stop-color="#fd75a8"/><stop offset="1" stop-color="#1a2c74"/></linearGradient><linearGradient id="g77" x2="1" href="#P" gradientTransform="matrix(1.306,-58.765,40.353,.897,732.551,380.05)"><stop stop-color="#fd75a8"/><stop offset="1" stop-color="#1a2c74"/></linearGradient><linearGradient id="g78" x2="1" href="#P" gradientTransform="matrix(.771,-34.675,33.08,.735,762.992,367.964)"><stop stop-color="#fd75a8"/><stop offset="1" stop-color="#1a2c74"/></linearGradient><linearGradient id="g79" x2="1" href="#P" gradientTransform="matrix(1.306,-58.765,40.353,.897,770.369,380.818)"><stop stop-color="#fd75a8"/><stop offset="1" stop-color="#1a2c74"/></linearGradient><linearGradient id="g80" x2="1" href="#P" gradientTransform="matrix(.771,-34.676,33.081,.735,757.286,367.887)"><stop stop-color="#fd75a8"/><stop offset="1" stop-color="#1a2c74"/></linearGradient><linearGradient id="g81" x2="1" href="#P" gradientTransform="matrix(1.311,-58.977,60.02,1.334,734.298,380.217)"><stop stop-color="#fd75a8"/><stop offset="1" stop-color="#1a2c74"/></linearGradient><linearGradient id="g82" x2="1" href="#P" gradientTransform="matrix(1.311,-58.977,60.02,1.334,783.013,378.821)"><stop stop-color="#fd75a8"/><stop offset="1" stop-color="#1a2c74"/></linearGradient><linearGradient id="g83" x2="1" href="#P" gradientTransform="matrix(1.311,-58.977,60.02,1.334,748.73,378.123)"><stop stop-color="#fd75a8"/><stop offset="1" stop-color="#1a2c74"/></linearGradient><linearGradient id="g84" x2="1" href="#P" gradientTransform="matrix(1.306,-58.765,40.353,.897,719.8,377.412)"><stop stop-color="#fd75a8"/><stop offset="1" stop-color="#1a2c74"/></linearGradient><linearGradient id="g85" x2="1" href="#P" gradientTransform="matrix(.771,-34.675,33.08,.735,990.673,367.762)"><stop stop-color="#fd75a8"/><stop offset="1" stop-color="#1a2c74"/></linearGradient><linearGradient id="g86" x2="1" href="#P" gradientTransform="matrix(1.306,-58.765,40.353,.897,974.006,380.05)"><stop stop-color="#fd75a8"/><stop offset="1" stop-color="#1a2c74"/></linearGradient><linearGradient id="g87" x2="1" href="#P" gradientTransform="matrix(.771,-34.675,33.081,.735,1004.447,367.964)"><stop stop-color="#fd75a8"/><stop offset="1" stop-color="#1a2c74"/></linearGradient><linearGradient id="g88" x2="1" href="#P" gradientTransform="matrix(1.306,-58.765,40.353,.897,1011.824,380.818)"><stop stop-color="#fd75a8"/><stop offset="1" stop-color="#1a2c74"/></linearGradient><linearGradient id="g89" x2="1" href="#P" gradientTransform="matrix(.771,-34.676,33.082,.735,998.741,367.887)"><stop stop-color="#fd75a8"/><stop offset="1" stop-color="#1a2c74"/></linearGradient><linearGradient id="g90" x2="1" href="#P" gradientTransform="matrix(1.311,-58.977,60.02,1.334,975.753,380.217)"><stop stop-color="#fd75a8"/><stop offset="1" stop-color="#1a2c74"/></linearGradient><linearGradient id="g91" x2="1" href="#P" gradientTransform="matrix(1.311,-58.977,60.02,1.334,990.185,378.123)"><stop stop-color="#fd75a8"/><stop offset="1" stop-color="#1a2c74"/></linearGradient><linearGradient id="g92" x2="1" href="#P" gradientTransform="matrix(1.306,-58.765,40.353,.897,961.255,377.412)"><stop stop-color="#fd75a8"/><stop offset="1" stop-color="#1a2c74"/></linearGradient><linearGradient id="g93" x2="1" href="#P" gradientTransform="matrix(1.915,-86.161,53.659,1.192,153.879,389.056)"><stop stop-color="#fd75a8"/><stop offset="1" stop-color="#1a2c74"/></linearGradient><linearGradient id="g94" x2="1" href="#P" gradientTransform="matrix(1.915,-86.161,53.659,1.192,205.326,390.206)"><stop stop-color="#fd75a8"/><stop offset="1" stop-color="#1a2c74"/></linearGradient><linearGradient id="g95" x2="1" href="#P" gradientTransform="matrix(1.915,-86.161,53.66,1.192,14.94,385.908)"><stop stop-color="#fd75a8"/><stop offset="1" stop-color="#1a2c74"/></linearGradient><linearGradient id="g96" x2="1" href="#P" gradientTransform="matrix(1.915,-86.161,53.66,1.192,181.838,389.685)"><stop stop-color="#fd75a8"/><stop offset="1" stop-color="#1a2c74"/></linearGradient><linearGradient id="g97" x2="1" href="#P" gradientTransform="matrix(1.92,-86.413,79.789,1.773,159.982,389.306)"><stop stop-color="#fd75a8"/><stop offset="1" stop-color="#1a2c74"/></linearGradient><linearGradient id="g98" x2="1" href="#P" gradientTransform="matrix(2.631,-118.401,53.571,1.19,-22.91,405.752)"><stop stop-color="#fd75a8"/><stop offset="1" stop-color="#1a2c74"/></linearGradient><linearGradient id="g99" x2="1" href="#P" gradientTransform="matrix(2.631,-118.401,53.57,1.19,-31.425,405.49)"><stop stop-color="#fd75a8"/><stop offset="1" stop-color="#1a2c74"/></linearGradient><linearGradient id="g100" x2="1" href="#P" gradientTransform="matrix(2.631,-118.401,53.571,1.19,31.041,407.251)"><stop stop-color="#fd75a8"/><stop offset="1" stop-color="#1a2c74"/></linearGradient><linearGradient id="g101" x2="1" href="#P" gradientTransform="matrix(2.631,-118.402,53.571,1.19,6.354,406.512)"><stop stop-color="#fd75a8"/><stop offset="1" stop-color="#1a2c74"/></linearGradient><linearGradient id="g102" x2="1" href="#P" gradientTransform="matrix(2.631,-118.401,53.571,1.19,-12.191,401.286)"><stop stop-color="#fd75a8"/><stop offset="1" stop-color="#1a2c74"/></linearGradient><linearGradient id="g103" x2="1" href="#P" gradientTransform="matrix(2.631,-118.402,53.571,1.19,25.589,402.307)"><stop stop-color="#fd75a8"/><stop offset="1" stop-color="#1a2c74"/></linearGradient><linearGradient id="g104" x2="1" href="#P" gradientTransform="matrix(2.634,-118.532,79.593,1.769,12.947,401.8)"><stop stop-color="#fd75a8"/><stop offset="1" stop-color="#1a2c74"/></linearGradient><linearGradient id="g105" x2="1" href="#P" gradientTransform="matrix(1.92,-86.413,79.789,1.773,570.513,398.512)"><stop stop-color="#fd75a8"/><stop offset="1" stop-color="#1a2c74"/></linearGradient><linearGradient id="g106" x2="1" href="#P" gradientTransform="matrix(1.915,-86.161,53.66,1.192,528.244,397.427)"><stop stop-color="#fd75a8"/><stop offset="1" stop-color="#1a2c74"/></linearGradient><linearGradient id="g107" x2="1" href="#P" gradientTransform="matrix(1.915,-86.161,53.66,1.192,90.764,387.622)"><stop stop-color="#fd75a8"/><stop offset="1" stop-color="#1a2c74"/></linearGradient><linearGradient id="g108" x2="1" href="#P" gradientTransform="matrix(1.915,-86.161,53.66,1.192,524.628,397.345)"><stop stop-color="#fd75a8"/><stop offset="1" stop-color="#1a2c74"/></linearGradient><linearGradient id="g109" x2="1" href="#P" gradientTransform="matrix(1.915,-86.161,53.66,1.192,118.722,388.25)"><stop stop-color="#fd75a8"/><stop offset="1" stop-color="#1a2c74"/></linearGradient><linearGradient id="g110" x2="1" href="#P" gradientTransform="matrix(1.915,-86.161,53.659,1.192,1085.152,392.307)"><stop stop-color="#fd75a8"/><stop offset="1" stop-color="#1a2c74"/></linearGradient><linearGradient id="g111" x2="1" href="#P" gradientTransform="matrix(1.915,-86.161,53.659,1.192,1076.635,392.116)"><stop stop-color="#fd75a8"/><stop offset="1" stop-color="#1a2c74"/></linearGradient><linearGradient id="g112" x2="1" href="#P" gradientTransform="matrix(1.915,-86.161,53.66,1.192,1104.594,392.745)"><stop stop-color="#fd75a8"/><stop offset="1" stop-color="#1a2c74"/></linearGradient><linearGradient id="g113" x2="1" href="#P" gradientTransform="matrix(2.376,-106.938,39.924,.887,1064.901,397.831)"><stop stop-color="#fd75a8"/><stop offset="1" stop-color="#1a2c74"/></linearGradient><linearGradient id="g114" x2="1" href="#P" gradientTransform="matrix(1.92,-86.413,79.79,1.773,1101.947,389.306)"><stop stop-color="#fd75a8"/><stop offset="1" stop-color="#1a2c74"/></linearGradient><linearGradient id="g115" x2="1" href="#P" gradientTransform="matrix(1.915,-86.161,53.66,1.192,1032.729,387.622)"><stop stop-color="#fd75a8"/><stop offset="1" stop-color="#1a2c74"/></linearGradient><linearGradient id="g116" x2="1" href="#P" gradientTransform="matrix(1.915,-86.161,53.66,1.192,1060.687,388.25)"><stop stop-color="#fd75a8"/><stop offset="1" stop-color="#1a2c74"/></linearGradient><linearGradient id="g117" x2="1" href="#P" gradientTransform="matrix(1.914,-86.13,50.481,1.122,615.125,399.35)"><stop stop-color="#fd75a8"/><stop offset="1" stop-color="#1a2c74"/></linearGradient><linearGradient id="g118" x2="1" href="#P" gradientTransform="matrix(1.914,-86.13,50.481,1.122,597.15,398.949)"><stop stop-color="#fd75a8"/><stop offset="1" stop-color="#1a2c74"/></linearGradient><linearGradient id="g119" x2="1" href="#P" gradientTransform="matrix(1.915,-86.161,53.66,1.192,567.919,398.314)"><stop stop-color="#fd75a8"/><stop offset="1" stop-color="#1a2c74"/></linearGradient><linearGradient id="g120" x2="1" href="#P" gradientTransform="matrix(1.912,-86.036,40.683,.904,672.461,400.579)"><stop stop-color="#fd75a8"/><stop offset="1" stop-color="#1a2c74"/></linearGradient><linearGradient id="g121" x2="1" href="#P" gradientTransform="matrix(1.909,-85.906,27.349,.608,640.529,399.791)"><stop stop-color="#fd75a8"/><stop offset="1" stop-color="#1a2c74"/></linearGradient><linearGradient id="g122" x2="1" href="#P" gradientTransform="matrix(1.92,-86.397,78.076,1.735,700.847,401.424)"><stop stop-color="#fd75a8"/><stop offset="1" stop-color="#1a2c74"/></linearGradient><linearGradient id="g123" x2="1" href="#P" gradientTransform="matrix(1.914,-86.15,52.507,1.167,659.013,400.344)"><stop stop-color="#fd75a8"/><stop offset="1" stop-color="#1a2c74"/></linearGradient><linearGradient id="g124" x2="1" href="#P" gradientTransform="matrix(1.914,-86.15,52.506,1.167,656.04,400.276)"><stop stop-color="#fd75a8"/><stop offset="1" stop-color="#1a2c74"/></linearGradient><linearGradient id="g125" x2="1" href="#P" gradientTransform="matrix(-2.049,-92.197,1118.525,-24.856,596.719,380.725)"><stop stop-color="#1a2c74"/><stop offset="1" stop-color="#fd75a8"/></linearGradient><linearGradient id="g126" x2="1" href="#P" gradientTransform="matrix(-30.449,291.805,-1691.071,-176.459,618.444,224.979)"><stop stop-color="#fd75a8"/><stop offset="1" stop-color="#1a2c74"/></linearGradient><linearGradient id="g127" x2="1" href="#P" gradientTransform="matrix(-9.326,83.934,-288.527,-32.059,161.952,318.687)"><stop stop-color="#fd75a8"/><stop offset="1" stop-color="#1a2c74"/></linearGradient><linearGradient id="g128" x2="1" href="#P" gradientTransform="matrix(2.181,53.436,-175.855,7.178,851.418,350.631)"><stop stop-color="#fd75a8"/><stop offset="1" stop-color="#1a2c74"/></linearGradient><linearGradient id="g129" x2="1" href="#P" gradientTransform="matrix(0,-276.582,2795.643,0,585.529,606.35)"><stop stop-color="#fd75a8"/><stop offset="1" stop-color="#1a2c74"/></linearGradient><linearGradient id="g130" x2="1" href="#P" gradientTransform="matrix(0,154.943,-382.355,0,32.735,282.039)"><stop stop-color="#fd75a8"/><stop offset="1" stop-color="#1a2c74"/></linearGradient><linearGradient id="g131" x2="1" href="#P" gradientTransform="matrix(0,86.917,-240.962,0,1114.958,309.059)"><stop stop-color="#fd75a8"/><stop offset="1" stop-color="#1a2c74"/></linearGradient><linearGradient id="g132" x2="1" href="#P" gradientTransform="matrix(-2.181,53.436,-175.855,-7.178,726.137,376.384)"><stop stop-color="#fd75a8"/><stop offset="1" stop-color="#1a2c74"/></linearGradient><linearGradient id="g133" x2="1" href="#P" gradientTransform="matrix(8.143,105.863,-413.157,31.781,969.21,308.157)"><stop stop-color="#fd75a8"/><stop offset="1" stop-color="#1a2c74"/></linearGradient><linearGradient id="g134" x2="1" href="#P" gradientTransform="matrix(0,86.203,-392.691,0,290.672,353.157)"><stop stop-color="#fd75a8"/><stop offset="1" stop-color="#1a2c74"/></linearGradient><linearGradient id="g135" x2="1" href="#P" gradientTransform="matrix(36.682,170.356,-356.188,76.696,22.703,299.088)"><stop stop-color="#fd75a8"/><stop offset="1" stop-color="#1a2c74"/></linearGradient><linearGradient id="g136" x2="1" href="#P" gradientTransform="matrix(-12.862,-138.905,853.685,-79.045,596.972,570.694)"><stop stop-color="#fd75a8"/><stop offset="1" stop-color="#1a2c74"/></linearGradient></defs><style>.a{fill:url(#g1)}.b{fill:url(#g2)}.c{fill:url(#g3)}.d{fill:url(#g4)}.e{fill:url(#g5)}.f{fill:url(#g6)}.g{fill:url(#g7)}.h{fill:url(#g8)}.i{fill:url(#g9)}.j{fill:url(#g10)}.k{fill:url(#g11)}.l{fill:url(#g12)}.m{fill:url(#g13)}.n{fill:url(#g14)}.o{fill:url(#g15)}.p{fill:url(#g16)}.q{fill:url(#g17)}.r{fill:url(#g18)}.s{fill:url(#g19)}.t{fill:url(#g20)}.u{fill:url(#g21)}.v{fill:url(#g22)}.w{fill:url(#g23)}.x{fill:url(#g24)}.y{fill:url(#g25)}.z{fill:url(#g26)}.A{fill:url(#g27)}.B{fill:url(#g28)}.C{fill:url(#g29)}.D{fill:url(#g30)}.E{fill:url(#g31)}.F{fill:url(#g32)}.G{fill:url(#g33)}.H{fill:url(#g34)}.I{fill:url(#g35)}.J{fill:url(#g36)}.K{fill:url(#g37)}.L{fill:url(#g38)}.M{fill:url(#g39)}.N{fill:url(#g40)}.O{fill:url(#g41)}.P{fill:url(#g42)}.Q{fill:url(#g43)}.R{fill:url(#g44)}.S{fill:url(#g45)}.T{fill:url(#g46)}.U{fill:url(#g47)}.V{fill:url(#g48)}.W{fill:url(#g49)}.X{fill:url(#g50)}.Y{fill:url(#g51)}.Z{fill:url(#g52)}.a0{fill:url(#g53)}.a1{fill:url(#g54)}.a2{fill:url(#g55)}.a3{fill:url(#g56)}.a4{fill:url(#g57)}.a5{fill:url(#g58)}.a6{fill:url(#g59)}.a7{fill:url(#g60)}.a8{fill:url(#g61)}.a9{fill:url(#g62)}.aa{fill:url(#g63)}.ab{fill:url(#g64)}.ac{fill:url(#g65)}.ad{fill:url(#g66)}.ae{fill:url(#g67)}.af{fill:url(#g68)}.ag{fill:url(#g69)}.ah{fill:url(#g70)}.ai{fill:url(#g71)}.aj{fill:url(#g72)}.ak{fill:url(#g73)}.al{fill:url(#g74)}.am{fill:url(#g75)}.an{fill:url(#g76)}.ao{fill:url(#g77)}.ap{fill:url(#g78)}.aq{fill:url(#g79)}.ar{fill:url(#g80)}.as{fill:url(#g81)}.at{fill:url(#g82)}.au{fill:url(#g83)}.av{fill:url(#g84)}.aw{fill:url(#g85)}.ax{fill:url(#g86)}.ay{fill:url(#g87)}.az{fill:url(#g88)}.aA{fill:url(#g89)}.aB{fill:url(#g90)}.aC{fill:url(#g91)}.aD{fill:url(#g92)}.aE{fill:url(#g93)}.aF{fill:url(#g94)}.aG{fill:url(#g95)}.aH{fill:url(#g96)}.aI{fill:url(#g97)}.aJ{fill:url(#g98)}.aK{fill:url(#g99)}.aL{fill:url(#g100)}.aM{fill:url(#g101)}.aN{fill:url(#g102)}.aO{fill:url(#g103)}.aP{fill:url(#g104)}.aQ{fill:url(#g105)}.aR{fill:url(#g106)}.aS{fill:url(#g107)}.aT{fill:url(#g108)}.aU{fill:url(#g109)}.aV{fill:url(#g110)}.aW{fill:url(#g111)}.aX{fill:url(#g112)}.aY{fill:url(#g113)}.aZ{fill:url(#g114)}.b0{fill:url(#g115)}.b1{fill:url(#g116)}.b2{fill:url(#g117)}.b3{fill:url(#g118)}.b4{fill:url(#g119)}.b5{fill:url(#g120)}.b6{fill:url(#g121)}.b7{fill:url(#g122)}.b8{fill:url(#g123)}.b9{fill:url(#g124)}.ba{fill:url(#g125)}.bb{fill:url(#g126)}.bc{opacity:0;fill:url(#g127)}.bd{opacity:0;fill:url(#g128)}.be{opacity:0;fill:url(#g129)}.bf{fill:url(#g130)}.bg{fill:url(#g131)}.bh{fill:url(#g132)}.bi{fill:url(#g133)}.bj{fill:url(#g134)}.bk{fill:url(#g135)}.bl{opacity:0;fill:url(#g136)}</style><g clip-path="url(#cp1)"><path class="a" d="m659.5 189.5c0 34.6-28 62.5-62.5 62.5-34.5 0-62.5-27.9-62.5-62.5 0-34.5 28-62.5 62.5-62.5 34.5 0 62.5 28 62.5 62.5z"/><g style="opacity:0"><path class="b" d="m-32.3 405.6h931.9c-13-4.2-25.7-9.6-38.9-13.7-33-10.2-67.1-14.8-99.7-26.5-34.8-12.4-67.6-26.9-102.8-31.6-43.9-5.8-74.6-11.8-108.9-42.6-18.7-16.8-39.4-27.3-61-41.1-22.9-14.7-50-44.2-73.5-53.6-16.2-6.5-27-15.8-43.9-24.1-24.9-12.1-49.4-19.2-66-40.6-11.3-14.5-46.4-45.1-64.4-56.3-18.1-11.2-29.5 0.5-59.9-7.1-23.6-17.9-36.7-20.8-63.9-34.4-12.8-6.4-27.7-16-39.8-27.2-28.7-26.8-74.7 34.1-106.4 55.5-1 0.7-1.9 1.4-2.8 2z"/><path class="c" d="m1215.6 44.7c-4.9-6.1-9.8-12.2-15.4-17.7-8.5-8.5-27.4-4.8-33.8-8.5-15.7-9-18.1-15.5-36.4-11.8-12.7 2.5-43.2 26.5-65.3 48.9-24.2 24.3-37.9 28-58.2 43.3-6.3 4.7-18.5 7.4-23.7 2.5-15.6-14.6-33-21.1-59.7-0.2-41.7 32.4-106.2 58.7-151.6 114.6-26.6 32.7-105 24.4-139 38.3-44.4 18.1-86.7 49.9-130.7 69.2-40.1 17.7-103 19.8-147.5 49.4h861.3z"/><path class="d" d="m1215.6 476.7v-304.2c-2.6-2.7-5-5.2-7.3-7.7-14.6-15.5-59.4-28.6-75.1-43.7-14-13.5-36-38.1-55-38.1-16.9 0-21.7 8.3-38.1 19.5-20.6 14.1-52.2 32.9-65.7 47.7-22.8 25.1-30.1 4.5-58 17.2-13.1 5.9-26.9 14.9-43.1 10.1-43.1-12.7-72.1-43.2-99-30.4-12.9 6.1-32.3 22.1-45.5 23.1-20.8 1.5-20.5 24.1-41.3 31.9-25.9 9.8-26.8-3.8-50.2 10.9-53.3 33.8-76.1 15.5-126.9 50.8-19.9 13.9-40.3 14.4-63.4 20.3-10.5 2.7-57.6-9.3-68.5-7.6-25.1 3.8-116.7 21.6-139.6 30.4-12.7 4.9-152.1 14.4-162.4 22.9-35.5 29.1-31.8 112-42.4 146.9z"/><path class="e" d="m1061.3 257.9c-6.2-3.6-89.7-7.7-97.4-9.8-13.7-3.8-68.6-11.4-83.6-13-6.6-0.7-34.8 4.4-41.1 3.2-13.8-2.5-19.9 23.8-31.9 17.9-30.4-15.1-50.2-33.9-82.1-48.3-14-6.3-14.6-0.5-30.1-4.7-12.5-3.3-12.3-13-24.8-13.7-7.8-0.4-19.5-7.2-27.2-9.9-16.2-5.4-33.5 7.6-59.3 13.1-9.7 2-18-1.8-25.9-4.4-16.7-5.4-21.1 3.4-34.8-7.3-8-6.4-26.9-18.7-39.3-24.7-9.9-4.8-12.7-4.1-22.8-4.1-11.4 0-27 10.5-35.4 16.3-9.4 6.5-33.9 12.1-42.6 18.7-17 13-48.4 34.3-73 36-8.7 0.6-15.2-1.7-24 0.2-9.8 2.2-19.4 8.8-27.6 13.2-25.5 13.8-47.9 25.7-74.6 37.1-11.1 4.8-22.1 13-33.7 16.6-12.6 3.9-13.4-0.7-24.2-1.9-8.3-0.9-16.4 3-23.6 5-14.5 4.2-39.5 7.1-49.3 14.6-40.1 3.9-60 9.5-79.4 13q-2.9 0.6-5.9 1.2v10h1004.3c40.6-2.5 81.3-4.4 122-4.6-16.4-1.4-5.8-53.9-32.7-69.7z"/><path class="f" d="m-32.3 322.4h515.8c-15.8-4.3-31.7-9.3-46.9-12.2-19.8-3.8-40.3-9.9-81.3-14.2-10-8.1-35.6-11.3-50.4-15.8-7.4-2.2-15.7-6.4-24.2-5.4-11.1 1.3-11.8 6.3-24.8 2.1-11.8-3.9-23.1-12.9-34.4-18.1-27.4-12.3-50.3-25.3-76.4-40.2-8.4-4.8-18.2-12.1-28.2-14.4-9-2.1-15.6 0.4-24.6-0.3-25.1-1.8-57.3-24.9-74.7-39-8.9-7.2-34-13.3-43.6-20.4-1.8-1.3-4-2.8-6.3-4.5z"/><path class="g" d="m1215.6 188.5c-3.4 0.3-6.5 1.3-11.6 3.9-11.6 6.1-29.4 18.4-37 24.7-12.9 10.8-17 1.9-32.7 7.3-7.4 2.6-15.2 6.4-24.3 4.4-24.3-5.4-40.6-18.5-55.8-13-7.3 2.6-18.2 9.4-25.6 9.8-11.8 0.7-11.6 10.4-23.3 13.7-14.6 4.2-15.1-1.6-28.3 4.7-30 14.4-42.9 6.6-71.5 21.7-11.2 5.9-22.7 6.1-35.7 8.7-5.9 1.1-32.5-4-38.6-3.3-14.2 1.6-73.2 42-86.1 45.8-7.2 2.1-54 20.5-59.8 24.1-25.3 15.8-39.6 21.1-55.1 22.4 38.3 0.3 76.6 2.2 114.8 4.7h470.6z"/></g><g style="opacity:0"><path class="h" d="m1215.6 338.6c-21.8-0.5-42.3-1.2-66.6-2-52.1-1.7-97.6-3.9-149.9-5.6-14.8-0.4-31.8-0.8-45.6-1.4-14.3-0.6-24.1-1.5-37.5-2.2-8.5-0.4-27.4-0.2-33.8-0.4-15.7-0.5-18.1-0.8-36.4-0.7-12.7 0.2-43.2 1.5-65.3 2.6-24.2 1.3-37.9 1.5-58.2 2.3-6.3 0.3-18.4 0.4-23.7 0.2-15.6-0.8-32.9-1.2-59.7-0.1-41.7 1.8-106.2 3.2-151.6 6.1-26.5 1.7-105 1.3-139 2-44.4 1-86.7 2.7-130.7 3.7-40.1 0.9-103 1-147.4 2.6h1145.4z"/><path class="i" d="m633.2 336.1h25.2l-11.1-40.3z"/><path class="j" d="m624.6 336.1h25.3l-11.1-40.3z"/><path class="k" d="m655.6 336.1h25.3l-11.2-40.3z"/><path class="l" d="m675 336.1h25.3l-11.2-40.3z"/><path class="m" d="m645.8 335.4h16.8l-7.4-26.8z"/><path class="n" d="m612.3 336.1h19.5l-8.6-20.9z"/><path class="o" d="m541.9 336.1h25.3l-11.2-40.3z"/><path class="p" d="m533.4 336.1h25.2l-11.1-40.3z"/><path class="q" d="m577.2 336.1h15.7l-6.9-25.1z"/><path class="r" d="m554.5 335.4h16.8l-7.4-26.8z"/><path class="s" d="m521 336.1h19.5l-8.6-20.9z"/><path class="t" d="m225.9 336.1h25.3l-11.1-40.3z"/><path class="u" d="m217.4 336.1h25.3l-11.2-40.3z"/><path class="v" d="m205.1 336.1h19.5l-8.6-20.9z"/><path class="w" d="m475.4 336.1h19.5l-8.6-20.9z"/><path class="x" d="m451.5 336.1h25.3l-11.1-40.3z"/><path class="y" d="m396.4 336.1h25.3l-11.1-40.3z"/><path class="z" d="m440.3 336.1h15.7l-6.9-25.1z"/><path class="A" d="m281.1 342.9h19.5l-8.6-20.8z"/><path class="B" d="m257.3 342.9h25.3l-11.2-40.2z"/><path class="C" d="m246 342.9h15.8l-7-25.1z"/><path class="D" d="m417.6 335.4h16.8l-7.4-26.8z"/><path class="E" d="m384.1 336.1h19.5l-8.6-20.9z"/><path class="F" d="m794.8 336.1h19.5l-8.6-20.9z"/><path class="G" d="m771 336.1h25.3l-11.2-40.3z"/><path class="H" d="m333.2 340h25.3l-11.2-40.3z"/><path class="I" d="m759.7 336.1h15.8l-7-25.1z"/><path class="J" d="m354.4 339.3h16.8l-7.4-26.8z"/><path class="K" d="m852.7 336.1h15.5l-6.8-26.3z"/><path class="L" d="m834.7 336.1h15.5l-6.8-26.3z"/><path class="M" d="m810.7 336.1h25.3l-11.2-40.3z"/><path class="N" d="m912.4 335.3h9.9l-4.3-20.9z"/><path class="O" d="m920.5 335.3h12.9l-5.7-40.3z"/><path class="P" d="m925.7 336.1h18.9l-8.4-20.6z"/><path class="Q" d="m902.6 336.1h24.5l-10.8-39.8z"/><path class="R" d="m891.7 336.1h15.2l-6.7-24.8z"/><path class="S" d="m941 336.1h24.5l-10.8-39.8z"/><path class="T" d="m845.8 336.1h9.6l-4.2-16.4z"/><path class="U" d="m831.8 335.6h9.6l-4.2-17.9z"/><path class="V" d="m320.9 340h19.5l-8.6-20.9z"/><path class="W" d="m1106.1 329.8c-42.9-0.8-291.8 0.3-330.6 0.3h-254.5c-56.1 0-72.6-1.5-149.8 3.2-77.3 4.6-11.4-5-220.4-9.2-76.2-1.5-107.3-22.6-183.1-27v110.7h1247.9v-85.4c-34.1 3.5-83.2 7.9-109.5 7.4z"/><path class="X" d="m1106.1 336.1c-42.9-0.7-291.8 0.3-330.6 0.3h-254.5c-56.1 0-72.6-1.3-149.8 2.7-77.3 4-11.4-4.3-220.4-8-76.2-1.3-107.3-19.6-183.1-23.4v96.1h1247.9v-74.1c-34.1 3-83.2 6.8-109.5 6.4z"/><path class="Y" d="m411.8 349.6h25.3l-11.2-40.3z"/><path class="Z" d="m403.3 349.6h25.3l-11.2-40.3z"/><path class="a0" d="m434.2 349.6h25.3l-11.1-40.3z"/><path class="a1" d="m453.6 349.6h25.3l-11.1-40.3z"/><path class="a2" d="m424.4 348.8h16.8l-7.4-26.7z"/><path class="a3" d="m390.9 349.6h19.5l-8.6-20.9z"/><path class="a4" d="m320.5 349.6h25.3l-11.1-40.3z"/><path class="a5" d="m312 349.6h25.3l-11.2-40.3z"/><path class="a6" d="m355.8 349.6h15.8l-7-25.1z"/><path class="a7" d="m333.2 348.8h16.8l-7.4-26.7z"/><path class="a8" d="m255.8 349.6h20.6l-9.1-23.6z"/><path class="a9" d="m247.2 349.6h25.3l-11.1-40.3z"/><path class="aa" d="m274.1 349.6h20.7l-9.2-23.6z"/><path class="ab" d="m297.6 349.6h25.3l-11.2-40.3z"/><path class="ac" d="m266.1 349.2h13.7l-6-15.7z"/><path class="ad" d="m234.9 349.6h19.5l-8.6-20.9z"/><path class="ae" d="m164.5 349.6h25.3l-11.2-40.3z"/><path class="af" d="m156 349.6h25.2l-11.1-40.3z"/><path class="ag" d="m199.8 349.6h15.7l-6.9-25.1z"/><path class="ah" d="m177.1 348.8h16.8l-7.4-26.7z"/><path class="ai" d="m299.7 349.6h19.5l-8.6-20.9z"/><path class="aj" d="m4.6 349.6h25.3l-11.2-40.3z"/><path class="ak" d="m-3.9 349.6h25.2l-11.1-40.3z"/><path class="al" d="m254 349.6h19.5l-8.6-20.9z"/><path class="am" d="m230.2 349.6h25.3l-11.2-40.3z"/><path class="an" d="m750.5 349.6h15.6l-6.9-16.1z"/><path class="ao" d="m744.1 349.6h19l-8.3-27.4z"/><path class="ap" d="m764.3 349.6h15.6l-6.9-16.1z"/><path class="aq" d="m782 349.6h19l-8.4-27.4z"/><path class="ar" d="m758.3 349.3h10.3l-4.5-10.7z"/><path class="as" d="m734.9 349.6h14.6l-6.4-14.2z"/><path class="at" d="m783.5 349.6h14.7l-6.5-14.2z"/><path class="au" d="m749.2 349.6h14.7l-6.5-14.2z"/><path class="av" d="m731.3 349.6h19l-8.3-27.4z"/><path class="aw" d="m992 349.6h15.5l-6.8-16.1z"/><path class="ax" d="m985.6 349.6h19l-8.4-27.4z"/><path class="ay" d="m1005.8 349.6h15.5l-6.8-16.1z"/><path class="az" d="m1023.4 349.6h19l-8.4-27.4z"/><path class="aA" d="m999.8 349.3h10.3l-4.6-10.7z"/><path class="aB" d="m976.3 349.6h14.7l-6.5-14.2z"/><path class="aC" d="m990.7 349.6h14.7l-6.5-14.2z"/><path class="aD" d="m972.8 349.6h19l-8.4-27.4z"/><path class="aE" d="m175.1 349.6h25.3l-11.2-40.3z"/><path class="aF" d="m218.9 349.6h15.8l-7-25.1z"/><path class="aG" d="m35.9 356.4h25.3l-11.1-40.3z"/><path class="aH" d="m196.3 348.8h16.8l-7.5-26.7z"/><path class="aI" d="m162.8 349.6h19.5l-8.6-20.9z"/><path class="aJ" d="m28 347.5h25.3l-11.1-55.5z"/><path class="aK" d="m19.5 347.5h25.3l-11.2-55.5z"/><path class="aL" d="m63.3 347.5h15.8l-7-34.6z"/><path class="aM" d="m40.7 346.5h16.8l-7.4-36.9z"/><path class="aN" d="m38.7 347.5h25.2l-11.1-55.5z"/><path class="aO" d="m59.8 346.5h16.8l-7.4-36.9z"/><path class="aP" d="m26.3 347.5h19.5l-8.6-28.8z"/><path class="aQ" d="m573.5 349.6h19.5l-8.6-20.9z"/><path class="aR" d="m549.6 349.6h25.3l-11.1-40.3z"/><path class="aS" d="m111.9 353.5h25.2l-11.1-40.3z"/><path class="aT" d="m538.4 349.6h15.7l-6.9-25.1z"/><path class="aU" d="m133 352.7h16.8l-7.4-26.7z"/><path class="aV" d="m1106.4 349.6h25.3l-11.1-40.3z"/><path class="aW" d="m1097.9 349.6h25.3l-11.1-40.3z"/><path class="aX" d="m1119.1 348.8h16.8l-7.4-26.7z"/><path class="aY" d="m1124.7 349.6h18.8l-8.3-50.3z"/><path class="aZ" d="m1104.7 349.6h19.5l-8.6-20.9z"/><path class="b0" d="m1053.8 353.5h25.3l-11.1-40.3z"/><path class="b1" d="m1075 352.7h16.8l-7.4-26.7z"/><path class="b2" d="m631.3 349.6h15.6l-6.9-26.3z"/><path class="b3" d="m613.4 349.6h15.5l-6.9-26.3z"/><path class="b4" d="m589.3 349.6h25.3l-11.1-40.3z"/><path class="b5" d="m691.1 348.7h9.9l-4.4-20.8z"/><path class="b6" d="m699.1 348.7h12.9l-5.7-40.2z"/><path class="b7" d="m704.3 349.6h18.9l-8.3-20.7z"/><path class="b8" d="m681.2 349.6h24.5l-10.8-39.9z"/><path class="b9" d="m670.3 349.6h15.3l-6.8-24.9z"/><path class="ba" d="m1045.2 338.5c-209 3.6-143.2 11.9-220.4 7.9-77.7-4-93.5-2.7-149.8-2.7h-254.5c-38.9 0-287.7-1-330.6-0.3-29.8 0.5-88.9-4.5-122.2-7.5v75.3h1247.9v-95.4c-66.9 5.1-98.6 21.4-170.4 22.7z"/><path class="bb" d="m-32.3 366.4v86.6h1247.9v-86.6z"/></g><path class="bc" d="m244.2 394.4c6.6-0.8 9.9-1.1 16.5-1.9 0 0-10.9-6.1-14.2-14.4-3.4-8.4-15.2-9.4-17.8-7.8-2.5 1.6-5.8-6.5-12.5-7.2-6.6-0.6-12.1 20.1-13.8 20-1.7-0.2-1.6-5.6-5.8-12.1-4-6.1-12.2-6-17.6-10.5-2.7-2.2-3.9-5.3-6.8-7.2-4.4-2.8-10.2-2.2-14.5-5.7-6.1-5.1-7.1-9.8-16.7-9.1-9.4 0.8-14.1 10.2-22.6 13.3-9.7 3.5-9.7 18.4-9.7 18.4 0 0-3-2.1-8.9-2.1-5.9 0-6.8 8.5-9.3 6.5-2.5-2-2.1-18.8-16-17.9-14 1-14.8 20.3-22.9 26.1-8 5.8-18.9 9.6-18.9 9.6q105.7 1.1 211.5 2z"/><path class="bd" d="m741.2 400.8c2.7-2.1 5.5-4.9 7-8.1 3.5-7.7 14.6-8 16.9-6.4 2.3 1.6 5.8-5.7 12.1-6 6.2-0.3 10.2 19.4 11.8 19.4 1.6-0.1 1.8-5.2 6.1-11 4-5.6 11.7-5 17-8.9 2.6-1.9 3.9-4.8 6.7-6.4 4.2-2.4 9.6-1.6 13.8-4.6 6-4.4 7.1-8.8 16-7.6 8.9 1.2 12.7 10.2 20.5 13.5 8.9 3.9 8.1 17.7 8.1 17.7 0 0 2.9-1.7 8.4-1.4 5.5 0.3 5.9 8.2 8.3 6.5 2.5-1.8 3-17.5 16-15.8 12.9 1.6 12.7 19.7 19.9 25.5 7.1 5.9 57.7 22.6 57.7 22.6-65.8-2.9-172.2-18.7-238.1-21.7-3.4-0.6-5.8-1-8.4-1.5z"/><path class="be" d="m1158 360.5c-51.7 11-104.4 11.2-158 15.3-53 4.1-100.3 21.8-155.9 17-48.9-4.2-88.5 4.2-138 9.1-87.3 8.8-165.4 0.8-250.5-9.6-73.7-9-144.4-11.5-220.8-5.5-49.3 3.8-74 3.9-121.8-6.3-42.8-9.2-113.8-42.7-129.9-50.2-4.8-2.2-10-3.8-15.4-5.1v123.4h1247.9v-107.2c-17.9 7.7-36.7 14.6-57.6 19.1z"/><g style="opacity:0"><path class="bf" d="m95.7 389.8c-6.7-14.6-28.9-16-33.6-13.1-4.6 2.9-11.4-11.3-23.9-12.2-12.5-0.9-21.2 36-24.3 35.8-3.2-0.2-3.5-9.9-11.8-21.2-8.3-11.3-24.9-8.9-24.9-8.9 0 0-2.5-6.8-9.5-13.2v63.1q62.5-0.6 125-1.3c12.3-1.6 18.4-2.3 30.7-3.9 0 0-20.9-10.4-27.7-25.1z"/><path class="bg" d="m1215.6 363.4c-2.8-0.4-4.9-0.1-4.9-0.1 0 0-2.5-7.9-10.8-12.5-8.3-4.7-16.5 5.4-17-3.3-0.6-8.6-15.2-16.6-25-15.9-9.7 0.7-11.1 12.2-22.2 16.4-11.2 4.2-11.1 21.3-11.1 21.3 0 0-3.4-2.3-10.2-2.3-6.8 0.1-7.7 9.8-10.6 7.5-2.9-2.2-2.6-21.6-18.7-20.3-16 1.3-16.7 23.5-25.9 30.3-9.1 6.8-21.7 11.3-21.7 11.3q89 0 178.1-0.2z"/><path class="bh" d="m836.3 426.6c-2.7-2.2-5.4-4.9-6.9-8.2-3.5-7.6-14.6-7.9-16.9-6.3-2.3 1.6-5.9-5.8-12.1-6-6.3-0.3-10.3 19.4-11.8 19.3-1.6 0-1.9-5.1-6.1-11-4.1-5.5-11.8-4.9-17-8.9-2.6-1.9-3.9-4.7-6.7-6.3-4.2-2.5-9.6-1.6-13.8-4.7-6-4.4-7.2-8.8-16.1-7.5-8.8 1.2-12.6 10.2-20.4 13.5-8.9 3.8-8.2 17.7-8.2 17.7 0 0-2.8-1.8-8.3-1.4-5.6 0.3-5.9 8.2-8.4 6.4-2.5-1.7-2.9-17.4-15.9-15.8-13 1.6-12.7 19.7-19.9 25.6-7.2 5.8-57.8 22.6-57.8 22.6 65.9-3 172.3-18.7 238.1-21.8 3.4-0.6 5.9-1 8.5-1.4z"/><path class="bi" d="m853.3 429.3c-7.4-0.3-11.2-0.5-18.6-0.8 0 0 11.7-8.1 14.7-18.2 3-10.1 16.1-12.2 19.1-10.6 3 1.7 6-8 13.4-9.4 7.4-1.3 15.2 22.7 17.1 22.3 1.9-0.3 1.4-6.7 5.5-14.6 3.9-7.6 13.2-8.1 18.8-13.8 2.8-2.8 3.9-6.5 6.9-9 4.7-3.7 11.2-3.5 15.7-8 6.4-6.4 7.2-12 17.9-11.9 10.7 0.1 16.6 10.7 26.4 13.7 11.2 3.3 12.5 20.8 12.5 20.8 0 0 3.1-2.6 9.7-3.1 6.6-0.5 8.3 9.3 10.9 6.7 2.7-2.5 0.8-22.2 16.4-22.2 15.7 0 18.3 22.6 27.7 28.8 9.5 6.1 22.1 9.7 22.1 9.7q-118.1 9.9-236.2 19.6z"/><path class="bj" d="m159.7 439.2c-8.5-0.8-12.7-1.1-21.1-1.8 0 0 13.7-7 17.7-16.3 4-9.3 19-10.6 22.3-8.9 3.3 1.7 7.3-7.3 15.8-8.1 8.5-0.9 16 22 18.1 21.8 2.2-0.2 2-6.2 7.1-13.5 4.9-6.9 15.4-6.8 22.2-11.9 3.3-2.5 4.8-5.9 8.4-8.1 5.5-3.2 12.9-2.7 18.3-6.6 7.6-5.7 8.8-11 21-10.3 12.1 0.7 18.2 11 29.1 14.2 12.5 3.8 12.9 20.2 12.9 20.2 0 0 3.7-2.3 11.3-2.4 7.5-0.1 8.8 9.2 12 6.9 3.1-2.2 2.1-20.8 19.9-20 17.8 0.8 19.4 22.2 29.7 28.5 10.4 6.3 24.4 10.2 24.4 10.2q-134.6 3.2-269.1 6.1z"/><path class="bk" d="m159.1 420.9c-7.7-11.5-33.2-12.7-38.6-10.5-5.4 2.3-13.1-8.9-27.4-9.6-14.4-0.8-24.6 28.1-28.3 27.9-3.6-0.1-3.9-7.7-13.4-16.6-9.5-8.9-28.6-7.1-28.6-7.1 0 0-5-9.5-20.8-15.1-15.7-5.6-30.7 6.7-32.1-3.7-0.2-1.5-1-3-2.2-4.5v62.7q93.8-0.5 187.7-0.8c14.1-1.1 21.2-1.7 35.3-2.9 0 0-23.9-8.2-31.6-19.8z"/></g><path class="bl" d="m1016 476.7l199.6-2.7v-89c-25.4 8.5-53.2 8.7-87.6 8.9-52.8 0.2-104.2 10-157.8 14.6-53 4.5-100 21.9-155.7 18.1-48.9-3.3-88.4 5.1-137.9 10.4-87.1 9.5-165.4 2.9-250.6-5.8-73.7-7.5-144.5-8.9-220.8-2.3-49.2 4.3-73.9 4.7-121.8-4.3-34.7-6.5-88-27.9-115.7-39.4v91.5z"/></g></svg>